<?xml version="1.0" encoding="UTF-8" standalone="no"?>
<!-- Created with Inkscape (http://www.inkscape.org/) -->

<svg
   xmlns:dc="http://purl.org/dc/elements/1.1/"
   xmlns:cc="http://creativecommons.org/ns#"
   xmlns:rdf="http://www.w3.org/1999/02/22-rdf-syntax-ns#"
   xmlns:svg="http://www.w3.org/2000/svg"
   xmlns="http://www.w3.org/2000/svg"
   xmlns:sodipodi="http://sodipodi.sourceforge.net/DTD/sodipodi-0.dtd"
   xmlns:inkscape="http://www.inkscape.org/namespaces/inkscape"
   id="svg9343"
   version="1.1"
   inkscape:version="0.91 r13725"
   width="831.96759"
   height="481.74326"
   viewBox="0 0 831.96759 481.74326"
   sodipodi:docname="shedoffice.svg">
  <metadata
     id="metadata9349">
    <rdf:RDF>
      <cc:Work
         rdf:about="">
        <dc:format>image/svg+xml</dc:format>
        <dc:type
           rdf:resource="http://purl.org/dc/dcmitype/StillImage" />
        <dc:title></dc:title>
      </cc:Work>
    </rdf:RDF>
  </metadata>
  <defs
     id="defs9347" />
  <sodipodi:namedview
     pagecolor="#ffffff"
     bordercolor="#666666"
     borderopacity="1"
     objecttolerance="10"
     gridtolerance="10"
     guidetolerance="10"
     inkscape:pageopacity="0"
     inkscape:pageshadow="2"
     inkscape:window-width="1512"
     inkscape:window-height="843"
     id="namedview9345"
     showgrid="false"
     fit-margin-top="0"
     fit-margin-left="0"
     fit-margin-right="0"
     fit-margin-bottom="0"
     inkscape:zoom="0.76600567"
     inkscape:cx="311.31362"
     inkscape:cy="276.12194"
     inkscape:window-x="0"
     inkscape:window-y="0"
     inkscape:window-maximized="0"
     inkscape:current-layer="svg9343" />
  <g
     id="g9895"
     transform="matrix(1.8838521,0,0,1.6399485,-3.7677042,-2.140909)">
    <path
       style="fill:#f7f6f3"
       d="M 2,148.18047 2,1.3054733 l 220.625,0 220.625,0 0,146.8749967 0,146.875 -220.625,0 -220.625,0 0,-146.875 z"
       id="path9911"
       inkscape:connector-curvature="0" />
    <path
       style="fill:#aa9862"
       d="m 175.75,293.80547 c 0,-0.6875 -0.82525,-1.25 -1.8339,-1.25 -1.00865,0 -39.96178,-19.38745 -86.562502,-43.08322 L 2.625,206.38901 2.2961956,163.93665 c -0.3070832,-39.64789 -0.1832179,-42.4925 1.875,-43.06003 C 5.383288,120.5424 9.46875,119.58574 13.25,118.75071 c 14.084506,-3.11036 12.422137,1.0634 13.158511,-33.03742 0.355865,-16.479845 1.083173,-30.3995 1.616236,-30.932564 0.533065,-0.533065 13.598694,-4.66683 29.034732,-9.186145 C 72.495515,41.075267 89.625,36.02575 95.125,34.373432 116.56071,27.933688 196.92286,5.976968 206.72515,3.8817996 218.34864,1.397362 218.1284,1.3720799 246.375,8.4334973 c 9.625,2.4061707 23.125,5.6850147 30,7.2863197 21.36374,4.975981 153.37839,37.925845 160.50301,40.060349 l 6.75303,2.023169 -0.84424,22.487695 c -0.46432,12.368231 -1.39459,45.45599 -2.06725,73.52836 -0.67266,28.07237 -1.55301,51.90058 -1.95631,52.9516 -0.482,1.25606 -44.06856,16.29316 -127.18576,43.87832 -138.16364,45.85413 -133.76237,44.40616 -134.97873,44.40616 -0.46681,0 -0.84875,-0.5625 -0.84875,-1.25 z"
       id="path9909"
       inkscape:connector-curvature="0" />
    <path
       style="fill:#8c6c33"
       d="M 164.5,287.42505 C 157.96875,283.94221 137.15625,273.24681 118.25,263.65751 20.869444,214.26584 6.3704825,206.60116 5.9231642,204.27755 5.6746546,202.98666 4.6227924,201.44289 3.5856925,200.84694 2.228002,200.06676 2.1081394,199.51119 3.1575854,198.86259 c 1.0366786,-0.6407 1.495164,-9.35104 1.58787,-30.16645 0.071688,-16.09612 0.6657078,-30.32035 1.320045,-31.60942 0.7688997,-1.51475 0.7325666,-3.28327 -0.1027213,-5 C 4.4895854,129.05895 3.3432215,121.34645 4.4151272,121.67444 4.8055572,121.7939 8.5,121.12506 12.625,120.18812 c 4.125,-0.93694 9.1875,-2.08776 11.25,-2.55738 l 3.75,-0.85384 0.876119,-26.173214 C 28.982985,76.208418 29.082761,62.371968 28.722846,59.856018 28.19468,56.163933 28.507911,55.155742 30.346726,54.629273 31.599778,54.270513 44.15625,50.588742 58.25,46.44756 72.34375,42.306376 85.28125,38.669336 87,38.365248 c 1.71875,-0.304086 4.53125,-1.183695 6.25,-1.954685 1.71875,-0.77099 14.09375,-4.408671 27.5,-8.083736 22.70006,-6.222786 85.45931,-23.6544963 92.5,-25.6923633 1.71875,-0.4974772 4.8125,-0.4735084 6.875,0.053264 8.93905,2.2830767 84.30091,21.0883213 150.68232,37.6001613 l 71.93232,17.892584 -0.36848,17.5 c -0.20267,9.625 -0.92685,28.187497 -1.60928,41.249997 -0.68244,13.0625 -1.58815,38.15984 -2.01269,55.77187 -0.42455,17.61201 -1.19681,32.70937 -1.71615,33.54968 -0.84379,1.36527 -256.35606,87.57709 -259.40804,87.52628 -0.6875,-0.0113 -6.59375,-2.8704 -13.125,-6.35325 z M 152.91146,184.30026 c -0.41537,-0.41536 -1.4935,-0.45976 -2.39584,-0.0986 -0.99716,0.39902 -0.70097,0.69522 0.75522,0.7552 1.3177,0.0542 2.05598,-0.24117 1.64062,-0.65653 z M 165.75,182.00425 c 0,-0.30318 -0.5625,-0.89888 -1.25,-1.32378 -0.6875,-0.4249 -1.25,-0.17685 -1.25,0.55123 0,0.72807 0.5625,1.32377 1.25,1.32377 0.6875,0 1.25,-0.24805 1.25,-0.55122 z M 109.5,176.2317 c 0,-0.64693 -0.5625,-1.17623 -1.25,-1.17623 -0.6875,0 -1.25,0.87695 -1.25,1.94878 0,1.07182 0.5625,1.60112 1.25,1.17622 0.6875,-0.4249 1.25,-1.30185 1.25,-1.94877 z m 86.08438,-0.0607 c 9.64837,-3.06021 9.53614,-2.96548 9.61807,-8.1187 0.0426,-2.67945 0.78911,-13.87174 1.6589,-24.87174 0.86979,-11 1.39744,-24.21518 1.17254,-29.36707 l -0.40889,-9.3671 -6.40906,-1.01636 -6.40908,-1.01635 -0.82015,-7.249183 -0.82015,-7.249186 -9.52187,-0.804894 c -15.2325,-1.287617 -23.89003,-0.94521 -28.87234,1.14191 -2.62997,1.101715 -7.32408,1.806595 -10.81362,1.623808 -6.45832,-0.338294 -9.28321,1.904165 -5.24536,4.163863 1.12015,0.626863 2.03663,1.95555 2.03663,2.952638 0,0.997089 1.0918,1.812887 2.42622,1.812887 2.88677,0 4.50588,-2.042193 2.26907,-2.861987 -1.21093,-0.443808 -1.23194,-0.935314 -0.0919,-2.147741 1.94166,-2.064714 5.39659,-0.675572 5.39659,2.169813 0,1.231202 1.13792,2.949192 2.52871,3.817757 2.04316,1.275975 2.27474,2.053765 1.20603,4.050685 -1.1247,2.10152 -2.63577,2.47147 -10.09462,2.47147 l -8.7719,0 0.60457,17.8125 c 0.83065,24.47334 0.66111,23.38047 3.72137,23.98939 9.18199,1.82701 11.0963,1.83623 12.87058,0.062 1.26521,-1.26526 4.44473,-1.86389 9.89955,-1.86389 l 8.03571,0 0,16.43528 0,16.43526 10.14688,-0.78246 c 5.58077,-0.43036 12.19014,-1.43055 14.6875,-2.22264 z m 34.37403,-4.63374 c 2.68424,1.50216 3.13654,1.147 3.57714,-2.80891 0.29454,-2.6445 -0.11537,-3.00018 -3.09805,-2.68798 -2.94152,0.3079 -3.4375,-0.0979 -3.4375,-2.8125 0,-2.51268 0.62202,-3.17235 2.99126,-3.17235 2.75628,0 4.50874,-2.04387 4.50874,-5.25848 0,-0.78224 -1.50049,-1.00392 -3.75,-0.55402 -3.14591,0.62919 -3.75,0.35547 -3.75,-1.69916 0,-2.27954 0.93064,-2.45004 13.4375,-2.46187 19.54101,-0.0185 28.02641,-1.11757 27.55431,-3.56899 -0.20896,-1.08508 -1.78324,-2.30099 -3.49837,-2.70204 -2.54534,-0.59516 -3.19069,-1.59759 -3.5116,-5.45454 -0.21623,-2.59895 0.15914,-5.39083 0.83415,-6.20417 0.82346,-0.99223 0.64435,-2.27604 -0.54434,-3.90168 -0.97441,-1.33258 -1.77165,-4.82682 -1.77165,-7.76498 0,-5.61337 2.12445,-7.93007 7.27204,-7.93007 2.77775,0 3.93542,-3.12693 3.9609,-10.69858 0.0271,-8.073494 -1.34642,-8.90231 -16.23294,-9.795058 -7.21875,-0.43291 -16.86534,-1.133914 -21.43687,-1.557787 l -8.31188,-0.770679 -0.8444,10.473554 c -0.46442,5.76045 -0.55089,19.1923 -0.19214,29.84855 0.35875,10.65625 0.71831,25 0.79901,31.875 0.11963,10.19198 0.43007,12.11773 1.68118,10.42962 1.14769,-1.54855 2.09625,-1.75597 3.76351,-0.82292 z m 2.41791,-27.46665 c -1.04118,-0.66605 -1.22808,-2.85021 -0.61228,-7.15524 0.84185,-5.88522 1.10553,-6.2321 5.24867,-6.90455 2.39925,-0.3894 6.75291,-0.47956 9.67479,-0.20033 4.8863,0.46693 5.3125,0.793 5.3125,4.06426 0,1.95612 -0.74555,4.00641 -1.65676,4.5562 -0.91123,0.54979 -2.01856,1.98399 -2.46078,3.18711 -0.58012,1.57839 -2.17871,2.1875 -5.741,2.1875 -2.71535,0 -5.68612,0.27534 -6.60172,0.61188 -0.91562,0.33652 -2.33914,0.18045 -3.16342,-0.34683 z m 136.85092,19.73491 c 1.2416,0 1.56417,-0.4321 0.83526,-1.11891 -1.63509,-1.54065 -18.40765,-2.47624 -16.87258,-0.94116 1.43456,1.43455 10.03558,3.20204 12.34982,2.53785 0.9156,-0.26278 2.57497,-0.47778 3.6875,-0.47778 z m -228.861,-9.66371 c -0.31693,-1.21621 -0.59708,-0.52379 -0.62255,1.53871 -0.0255,2.0625 0.23382,3.05758 0.57623,2.21129 0.3424,-0.84629 0.36324,-2.53379 0.0463,-3.75 z M 410.75,156.93047 c 0,-1.03125 -1.07813,-1.875 -2.39584,-1.875 -1.3177,0 -2.64695,-0.70312 -2.95386,-1.5625 -0.30693,-0.85937 -0.95658,-1.1941 -1.44368,-0.74382 -1.15531,1.06795 3.12459,6.05632 5.19618,6.05632 0.87846,0 1.5972,-0.84375 1.5972,-1.875 z M 92.657747,126.27495 c 0.802904,-21.70212 0.678021,-24.59218 -1.127412,-26.09056 -1.116685,-0.926765 -2.038949,-2.881778 -2.049476,-4.344473 -0.03426,-4.760082 -1.771394,-6.140245 -4.263039,-3.387009 -6.42554,7.100142 -3.558139,55.511212 3.575042,60.358362 2.416893,1.64234 2.960442,-2.08967 3.864885,-26.53632 z m 22.871183,9.00655 c 3.01133,-5.65675 3.04692,-6.08839 2.282,-27.6737 -0.66046,-18.637409 -1.09675,-22.16176 -2.9079,-23.489827 -1.17197,-0.859375 -3.00772,-1.54461 -4.07944,-1.522746 -1.7247,0.03519 -1.73315,0.214716 -0.0736,1.5625 1.38699,1.126421 1.77814,3.556106 1.50285,9.335246 -0.36206,7.600827 -0.46536,7.812497 -3.8125,7.812497 -1.89219,0 -4.05199,0.61165 -4.79956,1.35921 -1.33963,1.33964 -1.08229,36.94802 0.31355,43.38612 0.61737,2.84749 0.65371,2.83894 4.56894,-1.07629 2.17064,-2.17065 5.32318,-6.5325 7.00565,-9.69301 z m 59.51512,-55.095045 c 0.82574,-1.336064 -2.18784,-2.646539 -5.95879,-2.591228 -2.65206,0.0389 -2.65815,0.07916 -0.28385,1.875 2.75119,2.080899 5.22389,2.364595 6.24264,0.716228 z m -61.69182,-1.380982 c 0.63128,0 1.14777,-0.5625 1.14777,-1.25 0,-1.410423 -3.73854,-1.655605 -6.87757,-0.451046 -1.66186,0.637715 -1.74556,1.013466 -0.41474,1.86187 0.91702,0.584604 2.41644,0.787574 3.33204,0.451046 0.91561,-0.336528 2.18123,-0.61187 2.8125,-0.61187 z m 5.83179,-20.3125 c 0.68207,-0.859375 1.97827,-5.5 2.88044,-10.3125 1.87927,-10.024643 2.14546,-10.601218 3.73436,-8.0888 0.97535,1.542244 1.16598,1.486007 1.18204,-0.3487 0.033,-3.767268 3.76391,-2.546147 3.81919,1.25 l 0.05,3.4375 1.89701,-3.49886 c 1.41169,-2.603706 2.51978,-3.30121 4.33111,-2.726311 1.58587,0.503333 2.69539,0.09161 3.18392,-1.18146 1.50012,-3.90912 2.98791,-0.391764 2.98791,7.063736 0,4.199009 0.42187,7.212459 0.9375,6.696557 0.51562,-0.515904 0.99321,-2.156529 1.06131,-3.645834 0.0681,-1.489305 0.20873,-4.535953 0.3125,-6.770328 0.10378,-2.234375 0.75119,-4.0625 1.43869,-4.0625 0.71429,0 1.25,3.75 1.25,8.75 0,7.916667 0.2381,8.75 2.5,8.75 1.64132,0 2.5,-0.833333 2.5,-2.426228 0,-1.334427 0.5625,-2.773873 1.25,-3.198772 0.6875,-0.424898 1.25,0.385655 1.25,1.801229 0,1.415574 0.50232,2.573771 1.11626,2.573771 1.35406,0 2.63374,-3.086408 2.63374,-6.352233 0,-1.318772 0.5246,-2.397767 1.16576,-2.397767 1.51908,0 2.97221,4.610977 1.96615,6.238814 -0.4287,0.693653 0.0975,1.261186 1.16931,1.261186 1.11544,0 1.94878,-1.06905 1.94878,-2.5 0,-3.292727 2.02161,-3.21437 2.8915,0.112075 0.47146,1.802875 1.38791,2.412502 2.95829,1.967858 1.25136,-0.35432 6.22737,-1.278079 11.05778,-2.052799 4.83042,-0.774719 9.60255,-1.915355 10.60474,-2.534745 1.29976,-0.803294 2.00718,-4.457794 2.46744,-12.746777 0.36001,-6.48357 1.19782,-11.620612 1.89525,-11.620612 0.71734,0 1.40315,4.927105 1.60941,11.5625 0.27047,8.701128 0.77738,11.5625 2.04838,11.5625 2.06448,0 3.64851,-7.287058 3.30098,-15.185615 -0.14061,-3.195838 0.34553,-6.182161 1.08029,-6.636271 0.86113,-0.532204 1.33594,0.91564 1.33594,4.073651 0,2.694619 0.35771,7.509067 0.7949,10.698772 0.72659,5.30096 1.09045,5.799463 4.23307,5.799463 3.10302,0 3.50563,-0.517856 4.13018,-5.3125 1.42382,-10.93056 1.01332,-24.354228 -0.76564,-25.036878 -0.9323,-0.357756 -4.74889,0.187491 -8.4813,1.211661 -3.73241,1.02417 -10.16121,2.617976 -14.28621,3.541791 -4.125,0.923814 -10.875,2.541151 -15,3.594083 -4.125,1.05293 -12,3.038876 -17.5,4.413215 -17.13736,4.282277 -27.3326,7.134153 -31.875,8.916278 -2.40625,0.944048 -4.90123,1.55924 -5.54441,1.367095 -0.64318,-0.192143 -2.4713,-0.0226 -4.0625,0.376767 -2.75546,0.691576 -2.89309,1.260166 -2.89309,11.952303 0,10.807994 0.78113,13.006185 3.43402,9.663685 z m 35.41467,-19.166666 c 0.06,-1.456179 0.35617,-1.752375 0.7552,-0.755209 0.36108,0.902344 0.31668,1.980469 -0.0986,2.395834 -0.41537,0.415364 -0.7108,-0.322917 -0.65652,-1.640625 z M 389.5,54.504245 c 0,-0.303177 -0.5625,-0.898873 -1.25,-1.323772 -0.6875,-0.424898 -1.25,-0.176845 -1.25,0.551229 0,0.728074 0.5625,1.323771 1.25,1.323771 0.6875,0 1.25,-0.248052 1.25,-0.551228 z M 76.375,51.305473 c 0.424899,-0.6875 0.176845,-1.25 -0.551229,-1.25 -0.728074,0 -1.323771,0.5625 -1.323771,1.25 0,0.6875 0.248052,1.25 0.551229,1.25 0.303176,0 0.898872,-0.5625 1.323771,-1.25 z m 31.31442,-9.606188 c -0.40692,-1.098745 -1.77705,-1.14944 -5.30649,-0.196337 -6.585564,1.778393 -7.281161,2.840263 -3.488459,5.325338 2.571479,1.684896 3.656719,1.825852 5.064179,0.65776 1.44437,-1.19872 1.81216,-1.033329 1.89879,0.853871 0.0657,1.431116 0.54906,0.883466 1.24399,-1.409444 0.6251,-2.0625 0.8897,-4.416535 0.58799,-5.231188 z m 129.03902,-9.456312 c -0.33352,-13.269601 -0.50368,-14.083928 -3.01799,-14.442551 -2.59974,-0.370806 -2.65713,-0.03636 -2.35919,13.75 0.16794,7.771529 0.38261,14.270676 0.47705,14.442551 0.0944,0.171875 1.31511,0.3125 2.71263,0.3125 2.42496,0 2.52481,-0.641895 2.1875,-14.0625 z m -9.86265,5 c 0.15182,-4.296875 0.82315,-10.266208 1.49183,-13.265187 1.4569,-6.533981 0.0382,-8.922313 -5.30012,-8.922313 l -3.6364,0 0.76695,13.4375 c 0.91108,15.962784 1.05836,16.5625 4.0676,16.5625 2.00039,0 2.37356,-1.116973 2.61014,-7.8125 z M 2.4565382,185.68047 c 0.00326,-6.875 0.213165,-9.52802 0.4664674,-5.8956 0.2533024,3.63243 0.2506394,9.25743 -0.00592,12.5 -0.2565572,3.24258 -0.4638046,0.2706 -0.4605499,-6.6044 z m -0.2591698,-19.375 c 0,-1.71875 0.2837171,-2.42187 0.6304825,-1.5625 0.3467653,0.85938 0.3467653,2.26563 0,3.125 -0.3467654,0.85938 -0.6304825,0.15625 -0.6304825,-1.5625 z"
       id="path9907"
       inkscape:connector-curvature="0" />
    <path
       style="fill:#666151"
       d="m 164.5,287.42657 c -6.53125,-3.482 -26.78125,-13.83127 -45,-22.99838 -18.21875,-9.16713 -40.71875,-20.82624 -50,-25.90917 C 60.21875,233.43611 44.1875,225.2306 33.875,220.28457 6.3031426,207.0607 6.4436967,207.14046 5.9379172,204.43047 c -0.2566237,-1.375 -1.3151248,-2.98758 -2.3522247,-3.58353 -1.3576905,-0.78018 -1.4775531,-1.33575 -0.4281071,-1.98435 1.0366786,-0.6407 1.495164,-9.35104 1.58787,-30.16645 0.071688,-16.09612 0.6657078,-30.32035 1.320045,-31.60942 0.7688997,-1.51475 0.7325666,-3.28327 -0.1027213,-5 C 4.4895854,129.05895 3.3432215,121.34645 4.4151272,121.67444 4.8055572,121.7939 8.5,121.12506 12.625,120.18812 c 4.125,-0.93694 9.1875,-2.08619 11.25,-2.55389 3.487636,-0.79087 3.771444,-1.28251 4.056499,-7.02706 0.168575,-3.39718 0.675381,-8.70795 1.126237,-11.801697 0.67709,-4.646155 0.956036,-5.097323 1.60298,-2.592673 0.430783,1.66778 1.551715,3.288483 2.490961,3.601566 1.375858,0.458614 1.583155,-1.171703 1.066728,-8.389453 -0.352545,-4.927281 -1.026494,-9.344196 -1.497664,-9.815366 -1.547394,-1.547392 -3.005892,2.518158 -2.543024,7.088653 0.256622,2.533955 -0.132602,1.674775 -0.895442,-1.976619 -0.807984,-3.867478 -0.935722,-8.381164 -0.318378,-11.25 0.967432,-4.49571 1.059837,-4.574598 1.498729,-1.2795 0.257253,1.931384 0.849026,3.294144 1.315053,3.028355 0.466026,-0.265789 2.686677,-1.270448 4.93478,-2.232575 2.919743,-1.249573 3.843983,-2.293273 3.2352,-3.653355 -0.468744,-1.047218 -1.101558,-4.013408 -1.406254,-6.591533 -0.463378,-3.920772 -1.031603,-4.6875 -3.473927,-4.6875 -1.605966,0 -3.304696,0.622554 -3.774957,1.383454 -0.59604,0.964413 -1.180515,0.869758 -1.92963,-0.3125 C 27.597576,58.340398 28.103896,55.265585 30.4375,54.600462 31.640625,54.257548 44.15625,50.588742 58.25,46.44756 72.34375,42.306376 85.28125,38.669336 87,38.365248 c 1.71875,-0.304086 4.53125,-1.183695 6.25,-1.954685 1.71875,-0.77099 14.09375,-4.408671 27.5,-8.083736 22.70006,-6.222786 85.45931,-23.6544963 92.5,-25.6923633 1.71875,-0.4974772 4.8125,-0.4735084 6.875,0.053264 11.91397,3.0428875 88.50851,22.1274063 150.9059,37.6001613 69.89657,17.332334 72.1569,17.985093 72.1875,20.847014 0.0301,2.813488 -0.25165,2.913801 -5.9059,2.102774 -3.26563,-0.46841 -8.00465,-1.452414 -10.53116,-2.186675 -2.52652,-0.73426 -5.38114,-1.032836 -6.3436,-0.663503 -2.43812,0.935592 -2.91402,13.759107 -0.58244,15.694147 0.9447,0.784022 6.07901,2.074172 11.4096,2.866998 6.21845,0.924879 9.93886,2.084855 10.38084,3.236608 0.37886,0.987306 0.0605,9.49013 -0.70747,18.895158 -0.76796,9.40504 -1.70093,34.25631 -2.07326,55.22506 -0.37234,20.96875 -1.00994,40.74553 -1.4169,43.9484 -0.69254,5.45054 -1.0734,5.95075 -5.9483,7.8125 -2.86462,1.094 -5.71511,1.9891 -6.33445,1.9891 -0.61932,0 -3.41302,1.02753 -6.20821,2.28338 -2.79518,1.25586 -10.4259,4.01731 -16.95715,6.13657 -21.03905,6.82677 -31.72141,10.53915 -38.75,13.46664 -7.19225,2.99564 -184.21788,61.8812 -185.90573,61.83943 -0.5331,-0.0132 -6.31302,-2.8729 -12.84427,-6.35492 z m -18.125,-82.3711 c 3.69962,-0.9414 3.68587,-0.9562 -1.02444,-1.10211 -4.21145,-0.13045 -4.72384,-0.47954 -4.34532,-2.96039 0.26661,-1.7474 1.12795,-2.63171 2.27443,-2.33512 1.01493,0.26255 3.53283,0.87246 5.59533,1.35537 2.13531,0.49995 3.59126,1.57797 3.38134,2.50362 -0.28583,1.26035 1.1185,1.42548 6.25,0.73492 3.64026,-0.48989 9.71241,-1.12979 13.49366,-1.422 12.46129,-0.96302 29.13319,-4.12176 30.85792,-5.8465 0.93224,-0.93224 2.03903,-5.60049 2.45954,-10.37387 1.41515,-16.06387 3.28383,-77.7341 2.45545,-81.03464 -0.62965,-2.5087 -1.60017,-3.26928 -4.17172,-3.26928 -2.60648,0 -3.01785,-0.33333 -1.85119,-1.499997 2.2303,-2.230296 1.81567,-3.874128 -0.80435,-3.188977 -1.38214,0.361439 -2.88291,-0.323809 -3.75,-1.712249 -2.41208,-3.862336 -1.67396,-4.848774 3.62812,-4.848774 8.92601,0 4.13468,-2.095942 -6.69411,-2.928308 -12.90434,-0.991907 -19.05291,-2.879315 -17.08895,-5.245743 1.76424,-2.125774 -2.02917,-4.325949 -7.45854,-4.325949 -4.61548,0 -4.99681,2.022953 -0.74637,3.959584 4.42191,2.014755 2.90191,3.237544 -5.293,4.258044 -3.94229,0.490926 -8.40096,1.69872 -9.90818,2.683985 -1.7217,1.125486 -5.1755,1.662145 -9.29126,1.443697 -6.8214,-0.362051 -9.78276,1.81515 -5.62999,4.139165 1.12015,0.626863 2.03663,1.95555 2.03663,2.952638 0,0.997089 1.0918,1.812887 2.42622,1.812887 2.88677,0 4.50588,-2.042193 2.26907,-2.861987 -1.21093,-0.443808 -1.23194,-0.935314 -0.0919,-2.147741 1.99291,-2.119208 5.39659,-0.645372 5.39659,2.336761 0,1.323022 0.88532,2.745225 1.96739,3.160451 1.08206,0.415226 1.78001,1.741033 1.551,2.946233 -0.33525,1.76437 -2.11884,2.31305 -9.15488,2.81628 l -8.73851,0.625 0.20239,26.875 c 0.11137,14.78125 0.35226,37.42188 0.53543,50.3125 0.37147,26.14052 -0.26655,24.61215 9.26218,22.1875 z m -5.375,-24 c -1.72553,-1.72552 -2.0359,-12.41513 -0.41193,-14.1875 0.59846,-0.65312 0.67629,-4.5625 0.17298,-8.6875 -0.50331,-4.125 -0.6698,-7.93595 -0.36998,-8.46877 0.29983,-0.53284 3.88924,-0.74498 7.97649,-0.47144 4.08724,0.27354 7.73479,0.006 8.10567,-0.59371 0.70128,-1.1347 10.90305,-1.54814 11.96625,-0.48494 0.33337,0.33338 0.18502,4.13025 -0.32968,8.4375 -0.54216,4.53714 -0.4466,8.33088 0.2272,9.01886 1.72165,1.75792 1.41121,12.69235 -0.3995,14.07142 -0.85938,0.6545 -3.7191,1.30667 -6.35494,1.44927 -3.9894,0.21581 -4.91211,-0.19836 -5.50662,-2.47179 -0.60199,-2.302 -0.92915,-2.44188 -2.08256,-0.89042 -1.18451,1.59329 -8.30381,4.77902 -10.67991,4.77902 -0.44741,0 -1.48847,-0.675 -2.31347,-1.5 z m -27.94882,16.99857 c 2.77132,-1.9411 2.78918,-2.07688 0.5924,-4.50428 -1.84801,-2.04204 -2.20856,-4.30766 -1.95826,-12.30545 0.27589,-8.81532 0.0349,-9.99306 -2.39298,-11.6936 -1.48487,-1.04004 -3.18925,-1.58846 -3.78752,-1.21871 -0.85925,0.53105 -0.78754,11.75537 0.19669,30.78597 0.0846,1.63524 4.3848,1.01274 7.34967,-1.06393 z m 120.61534,-5.67113 c 8.58439,-1.724 9.23208,-3.57744 1.25014,-3.57744 -3.20832,0 -5.46282,-0.3705 -5.00999,-0.82335 0.45284,-0.45283 3.49972,-0.87471 6.77084,-0.9375 l 5.94749,-0.11415 0.37241,-7.82293 c 0.32182,-6.75974 0.79879,-8.10232 3.50952,-9.87845 3.48031,-2.28039 7.99307,-10.21283 7.99307,-14.05004 0,-3.20534 1.85635,-4.28545 8.75,-5.09115 5.11866,-0.59825 5.59279,-0.93873 5.26713,-3.78243 -0.46815,-4.08793 -0.48704,-3.54392 0.96882,-27.90147 0.81362,-13.61232 0.8291,-21.825597 0.0439,-23.292779 -0.94989,-1.774866 -3.9985,-2.614994 -14.05887,-3.874301 -7.06527,-0.884397 -16.76664,-1.652647 -21.55859,-1.70722 l -8.71262,-0.09923 -0.90284,5 c -1.13066,6.2617 -1.33021,81.29783 -0.24384,91.69164 0.44169,4.22585 1.19163,7.68336 1.66652,7.68336 0.4749,0 4.05102,-0.64015 7.94693,-1.42256 z m 10.41682,-29.41077 c -1.5189,-1.51889 -0.86293,-10.08599 0.88322,-11.53518 3.40774,-2.82816 5.78344,-0.25989 5.78344,6.25225 0,5.57418 -0.2585,6.11626 -2.91666,6.11626 -1.60418,0 -3.29168,-0.375 -3.75,-0.83333 z m -10.02161,-25.7076 c -1.01758,-3.89124 -0.0468,-4.41062 9.1628,-4.90195 6.92706,-0.36957 8.16182,-0.11488 8.52988,1.75916 0.25233,1.28479 -0.5128,2.48602 -1.84952,2.90375 -1.25394,0.39186 -3.25663,1.23391 -4.45043,1.87122 -1.1938,0.63732 -4.08131,1.15875 -6.41671,1.15875 -3.34246,0 -4.4015,-0.59398 -4.97602,-2.79093 z M 92,181.30547 c 0,-5 -0.535714,-8.75 -1.25,-8.75 -1.805387,0 -1.540365,-3.44495 0.3125,-4.0621 1.203024,-0.4007 1.542793,-8.54881 1.476839,-35.41666 -0.09583,-39.038773 -0.570793,-46.495592 -3.059519,-48.033708 -1.795782,-1.109855 -6.146609,0.576088 -7.773179,3.012101 -1.107428,1.658528 -1.019927,68.632617 0.113313,86.735087 0.848996,13.56183 1.644096,15.2072 7.367541,15.24615 C 91.838132,190.05437 92,189.55189 92,181.30547 Z m -30.729166,-3.10586 c 0.630207,-0.01 1.410086,-0.8119 1.733062,-1.78082 0.4038,-1.2114 -0.05172,-1.5165 -1.458333,-0.97673 C 59.86158,176.08826 59.5,175.3432 59.5,171.22701 c 0,-3.3993 0.630916,-5.2421 1.970755,-5.75625 1.083915,-0.41594 2.476244,-2.08579 3.094061,-3.71076 0.629009,-1.65443 2.153429,-2.95453 3.464288,-2.95453 2.090521,0 2.428171,-1.42502 3.155937,-13.31945 C 72.764474,119.67221 71.90534,96.693892 69.418229,98.231011 68.861232,98.575253 67.386144,97.407735 66.140254,95.636525 64.894365,93.865315 61.90625,90.138121 59.5,87.353873 l -4.375,-5.062268 -0.727529,9.819433 c -0.752072,10.150682 0.88256,76.664452 2.062324,83.916672 0.453585,2.78828 1.145522,3.79275 2.165862,3.14414 0.824639,-0.5242 2.014968,-0.96171 2.645177,-0.97224 z M 69.5,166.93047 c 0,-1.03125 -0.544846,-1.875 -1.210769,-1.875 -0.665924,0 -0.886992,0.84375 -0.491264,1.875 0.395728,1.03125 0.940574,1.875 1.210769,1.875 0.270195,0 0.491264,-0.84375 0.491264,-1.875 z m 299.72724,-3.125 c 1.2416,0 1.56417,-0.4321 0.83526,-1.11891 -1.63509,-1.54065 -18.40765,-2.47624 -16.87258,-0.94116 1.43456,1.43455 10.03558,3.20204 12.34982,2.53785 0.9156,-0.26278 2.57497,-0.47778 3.6875,-0.47778 z m 42.46085,-7.1875 c 0.32663,-0.98103 -0.68145,-1.5625 -2.70893,-1.5625 -3.15481,0 -4.11034,1.20217 -2.35261,2.95988 1.28596,1.28597 4.45984,0.40974 5.06154,-1.39738 z m -5.46934,-2.55968 c 0.33896,-0.54845 0.11437,-1.80937 -0.49917,-2.80205 -0.84318,-1.36428 -1.46777,-1.45258 -2.55862,-0.36173 -0.79372,0.79373 -1.0652,2.05464 -0.60327,2.80205 0.98707,1.59711 2.7876,1.77501 3.66106,0.36173 z m -290.4645,-18.97037 c 2.72566,-5.38197 2.80307,-6.41747 2.05597,-27.5 -0.65981,-18.619169 -1.09617,-22.141975 -2.90719,-23.469947 -2.87288,-2.106607 -6.4986,-2.158075 -4.40303,-0.0625 0.84921,0.849207 1.5,4.916667 1.5,9.375 0,7.791667 -0.037,7.874997 -3.5,7.874997 -6.01317,0 -6.32468,1.21643 -5.71781,22.32737 0.30906,10.7512 0.83608,20.82666 1.17116,22.38992 0.599,2.79454 0.67944,2.77354 4.78891,-1.25 2.29883,-2.25076 5.45422,-6.60894 7.01199,-9.68484 z m 315.73478,-21.28245 c 0.36322,-5.15625 0.93457,-10.19331 1.26967,-11.19346 0.64675,-1.93028 -3.1907,-10.056537 -4.74898,-10.056537 -1.68768,0 -3.5208,4.801342 -3.43218,8.989627 0.0481,2.27446 0.02,8.2535 -0.0626,13.28678 -0.0826,5.03327 0.51435,11.16476 1.32648,13.62554 l 1.4766,4.47415 1.75531,-4.87555 c 0.96542,-2.68155 2.0525,-9.0943 2.41573,-14.25055 z M 45.1828,101.57161 c -1.576434,-1.576438 -2.29411,1.41372 -2.076881,8.65323 0.335556,11.18298 1.955976,12.02568 2.389381,1.2426 0.203665,-5.06717 0.06304,-9.52029 -0.3125,-9.89583 z m -7.173785,7.09985 c -0.35557,-6.24167 -0.61392,-6.74099 -3.487811,-6.74099 -2.641769,0 -3.234188,0.7443 -3.979748,5 -1.139531,6.50454 -0.309366,9.11138 3.080143,9.67212 4.129255,0.68312 4.808225,-0.54425 4.387416,-7.93113 z m 354.999995,-0.95391 c -0.2112,-3.54468 -0.94651,-6.57813 -1.63401,-6.74098 -1.39991,-0.33161 -2.43561,10.81499 -1.28379,13.8166 1.47085,3.83297 3.30305,-0.61008 2.9178,-7.07562 z m 22.98293,4.48047 c 4.98307,-4.09597 7.60595,-18.392547 3.37432,-18.392547 -0.61394,0 -1.11626,0.602755 -1.11626,1.339458 0,0.736701 -1.26563,1.215565 -2.8125,1.064142 -2.75371,-0.26956 -5.93886,0.552873 -9.6875,2.501395 -1.09384,0.568569 -2.03538,3.139652 -2.25992,6.171252 -0.3031,4.09185 0.0955,5.37346 1.875,6.02843 1.24294,0.45749 2.70975,1.57734 3.25953,2.48856 1.40879,2.33494 3.47578,1.99807 7.36733,-1.20069 z m -14.96803,-4.736 c 1.21918,-5.41956 0.0752,-12.731258 -1.88941,-12.076379 -2.24956,0.749855 -3.79651,7.706689 -2.84341,12.787169 1.03985,5.54286 3.40595,5.18751 4.73282,-0.71079 z M 334.9368,99.630215 c 2.51505,-5.07418 2.0955,-9.363865 -1.24225,-12.701618 -3.45875,-3.458755 -5.92687,0.332386 -5.70506,8.763206 0.2873,10.919497 2.78521,12.335557 6.94731,3.938412 z m 29.04683,-5.190092 c 2.58139,-3.939726 1.46257,-7.192766 -2.29054,-6.659821 -2.87816,0.408701 -4.34463,4.372829 -2.95618,7.991079 1.01992,2.657847 2.95459,2.166959 5.24672,-1.331258 z M 45.347467,89.928075 c -0.89978,-8.369704 -1.611314,-8.801177 -2.436782,-1.477658 -0.709807,6.297393 -0.35195,7.855056 1.804619,7.855056 0.841077,0 1.069755,-2.306946 0.632163,-6.377398 z M 113.35223,78.805473 c 0.63128,0 1.14777,-0.5625 1.14777,-1.25 0,-1.410423 -3.73854,-1.655605 -6.87757,-0.451046 -1.66186,0.637715 -1.74556,1.013466 -0.41474,1.86187 0.91702,0.584604 2.41644,0.787574 3.33204,0.451046 0.91561,-0.336528 2.18123,-0.61187 2.8125,-0.61187 z M 412.49126,73.07824 c 0.41731,-1.08748 0.75874,-4.772433 0.75874,-8.188784 0,-5.83225 -0.24808,-6.313453 -4.0625,-7.880351 -2.23438,-0.917842 -5.89063,-2.058832 -8.125,-2.535535 L 397,53.606835 l 0,9.43858 0,9.438578 4.0625,1.173005 c 6.34233,1.83128 10.58642,1.616357 11.42876,-0.578758 z m -144.5798,-0.02797 c -0.41537,-0.415364 -1.4935,-0.459773 -2.39584,-0.09869 -0.99716,0.399033 -0.70097,0.695229 0.75522,0.755209 1.3177,0.05428 2.05598,-0.24116 1.64062,-0.656525 z M 243.25,70.754245 c 0,-1.319344 -2.39889,-1.873639 -3.1124,-0.719162 -0.43182,0.698715 0.0918,1.27039 1.16362,1.27039 1.07183,0 1.94878,-0.248052 1.94878,-0.551228 z m 150,-8.57285 0,-9.124079 -10.66818,-2.798006 c -5.8675,-1.538904 -11.21124,-2.462372 -11.875,-2.05215 -1.35443,0.837087 -1.56895,8.867048 -0.42213,15.802251 0.70549,4.266325 1.15258,4.6616 6.54875,5.78973 3.18536,0.665935 8.18218,1.277289 11.10406,1.358562 l 5.3125,0.14777 0,-9.124078 z M 46.212142,67.242973 c 0.414547,-1.546875 0.761402,-4.40062 0.770789,-6.341655 0.01301,-2.690666 -0.502657,-3.430461 -2.170431,-3.113757 -2.900316,0.55076 -4.000386,12.267912 -1.151779,12.267912 0.988735,0 2.136875,-1.265625 2.551421,-2.8125 z m 33.631347,-5.3125 c 0.5766,-2.75 1.328833,-6.346987 1.671631,-7.993306 0.836159,-4.015731 3.129459,-1.706444 3.770177,3.79646 0.817922,7.024853 2.58349,7.831943 13.146267,6.009525 5.056386,-0.87239 9.896566,-2.12788 10.755936,-2.789977 1.01589,-0.782683 1.5625,-4.648569 1.5625,-11.050758 0,-9.37648 -0.13438,-9.847239 -2.8125,-9.853126 -1.54687,-0.0034 -5.34375,0.787792 -8.4375,1.758206 -3.09375,0.970415 -9,2.693014 -13.125,3.827998 -16.268023,4.47611 -17.502646,4.989416 -17.395834,7.232478 0.05729,1.203125 0.197918,5.033955 0.3125,8.512957 L 69.5,67.706387 74.147562,67.31843 c 4.316528,-0.360323 4.722236,-0.744095 5.695927,-5.387957 z m 279.394781,-7.08715 c 0.31551,-8.326278 0.0689,-9.670928 -1.875,-10.224165 -11.30834,-3.218367 -79.79881,-18.686792 -82.18066,-18.560331 -1.34332,0.07132 -3.14445,-0.45298 -4.00252,-1.165112 -0.85807,-0.712133 -2.66478,-0.944184 -4.01492,-0.515668 -1.35012,0.428516 -2.81656,0.193739 -3.25874,-0.521727 -0.44219,-0.715465 -2.15056,-1.300847 -3.79638,-1.300847 -1.64584,0 -4.44591,-0.662257 -6.22241,-1.471682 -2.59781,-1.183643 -3.57619,-1.122479 -4.9988,0.3125 -2.66526,2.68842 -0.88869,27.838574 2.00556,28.391766 2.24657,0.429401 3.6056,-4.212396 3.6056,-12.315062 0,-2.623489 0.5625,-5.117623 1.25,-5.542522 0.78745,-0.486667 1.25,2.436002 1.25,7.898173 0,9.369606 1.64305,12.314017 6.08483,10.904254 1.35012,-0.428517 2.81656,-0.193739 3.25874,0.521727 1.11866,1.810018 5.30961,1.63039 6.10472,-0.261654 0.46546,-1.107636 1.07205,-0.903635 2.08367,0.700762 0.78489,1.244793 2.64565,2.145532 4.13505,2.001642 1.48939,-0.14389 3.55174,0.0644 4.58299,0.462868 1.65554,0.639686 11.82809,2.27731 55.625,8.954762 6.1875,0.94337 13.21875,1.625725 15.625,1.516343 l 4.375,-0.198877 0.36327,-9.58715 z m -94.49458,-9.16285 c 0.0255,-2.0625 0.30562,-2.75492 0.62255,-1.53871 0.31692,1.216209 0.29608,2.903709 -0.0464,3.75 -0.34235,0.84629 -0.60165,-0.14879 -0.57617,-2.21129 z M 137.625,58.735733 c 5.40217,-1.626941 25.12264,-5.33554 53.125,-9.990601 22.08761,-3.671804 25.16896,-3.91775 32.8357,-2.620857 4.65339,0.78716 11.26276,1.431198 14.6875,1.431198 l 6.2268,0 0.25569,-8.75 c 0.58689,-20.084886 0.75333,-19.08857 -3.38069,-20.23571 -2.0625,-0.572316 -9.25969,-2.198795 -15.99375,-3.614397 -12.41087,-2.608952 -14.57614,-2.542416 -26.50625,0.814509 -7.2057,2.027558 -19.46214,5.112576 -29.375,7.393863 -3.78125,0.870194 -12.21875,3.067272 -18.75,4.882394 -6.53125,1.815123 -16.51483,4.410759 -22.18573,5.768081 -15.29022,3.659697 -15.31427,3.684362 -15.31427,15.70861 0,5.563792 0.41085,10.526832 0.913,11.028979 1.09718,1.097188 18.17902,-0.225026 23.462,-1.816069 z M 2.4565382,185.68047 c 0.00326,-6.875 0.213165,-9.52802 0.4664674,-5.8956 0.2533024,3.63243 0.2506394,9.25743 -0.00592,12.5 -0.2565572,3.24258 -0.4638046,0.2706 -0.4605499,-6.6044 z m -0.2591698,-19.375 c 0,-1.71875 0.2837171,-2.42187 0.6304825,-1.5625 0.3467653,0.85938 0.3467653,2.26563 0,3.125 -0.3467654,0.85938 -0.6304825,0.15625 -0.6304825,-1.5625 z"
       id="path9905"
       inkscape:connector-curvature="0" />
    <path
       style="fill:#654e22"
       d="M 176.3125,292.6677 C 175.65937,292.04192 137.71875,272.54407 92,249.33915 46.28125,226.13422 8.7321058,207.0502 8.5574572,206.93021 8.2261896,206.70262 7.0428165,189.86025 6.449627,176.93047 c -0.189246,-4.125 -0.5647059,-10.81223 -0.8343553,-14.86053 -0.404697,-6.07579 -0.1084533,-7.54852 1.6972283,-8.4375 6.863357,-3.37902 6.582836,-2.83959 6.172653,-11.86963 -0.317562,-6.99099 -0.88199,-8.96339 -3.044028,-10.63735 -1.4597988,-1.13026 -2.8434834,-3.4686 -3.0748545,-5.19631 -0.3997591,-2.9851 0.1244859,-3.27362 10.5440265,-5.80296 6.030587,-1.46393 12.933453,-2.78184 15.339703,-2.9287 l 4.375,-0.26702 0,-7.5 c 0,-6.89615 -0.233784,-7.53312 -2.903665,-7.91138 -2.14748,-0.30425 -3.095661,0.3228 -3.640906,2.40782 l -0.73724,2.81921 -1.012175,-2.73617 c -0.556698,-1.50489 -0.639627,-4.55716 -0.184289,-6.782822 0.779632,-3.810787 0.87071,-3.86991 1.56256,-1.014328 0.40407,1.66778 1.503146,3.288483 2.442392,3.601566 1.375858,0.458614 1.583155,-1.171703 1.066728,-8.389453 -0.678513,-9.483111 -1.616485,-11.838752 -3.51723,-8.83324 -0.8968,1.418047 -1.167272,1.116337 -1.182034,-1.31855 -0.01546,-2.550135 1.062323,-3.631925 5.604167,-5.625 4.143447,-1.81825 5.393206,-2.961085 4.748943,-4.34265 -1.280706,-2.746363 -1.631337,-16.25 -0.421942,-16.25 1.62456,0 2.549691,3.471979 2.549691,9.56889 0,4.672075 0.367157,5.544657 2.1875,5.198774 1.754555,-0.333384 2.311199,-2.118124 2.8125,-9.017585 l 0.625,-8.601939 6.628246,-1.690276 c 3.645536,-0.929652 7.686682,-2.256734 8.980324,-2.94907 C 65.877534,46.14926 72,45.856128 72,47.144547 c 0,0.461491 -0.76858,1.727116 -1.707955,2.8125 -1.214899,1.403733 -1.530997,4.247875 -1.094972,9.85214 l 0.612983,7.878715 4.492534,-0.378715 c 4.81893,-0.406229 4.320286,0.518256 7.21253,-13.37202 0.829772,-3.985056 3.127576,-1.722616 3.75909,3.701236 0.655107,5.626494 2.565161,7.425675 7.816346,7.362632 7.139324,-0.08571 15.359624,-2.004855 16.568084,-3.86805 0.60734,-0.936382 0.96073,-6.483762 0.78531,-12.327512 L 110.125,38.180473 102,38.523201 c -9.490852,0.400342 -8.280066,-1.072193 3.17238,-3.858184 C 109.27132,33.667882 121.34375,30.309001 132,27.200836 142.65625,24.09267 158.96875,19.459805 168.25,16.90558 205.2345,6.7273462 213.29752,4.2696658 212.45835,3.4304961 c -0.48126,-0.4812625 1.14061,-0.8750228 3.60415,-0.8750228 2.46354,0 4.66666,0.4849104 4.89584,1.0775788 0.43407,1.1226212 30.33965,9.0779089 57.29166,15.2403639 8.59375,1.964921 44.875,10.977159 80.625,20.027195 72.85421,18.442887 74.76991,18.904129 80,19.261492 2.3546,0.160888 3.90039,1.025959 4.15415,2.324802 0.50785,2.599246 -1.05526,2.596551 -12.9739,-0.02237 -7.3243,-1.609397 -9.73056,-1.743437 -10.44835,-0.582027 -1.70982,2.76655 -1.57299,14.687517 0.18534,16.146799 0.91001,0.755238 6.1384,2.11071 11.61866,3.012163 l 9.9641,1.639008 -0.16036,7.5 c -0.65085,30.439022 -4.19095,118.124992 -4.76901,118.124992 -0.10488,0 -4.94498,1.69664 -10.75569,3.77033 -5.81071,2.07367 -62.87744,21.18141 -126.81494,42.46166 -63.9375,21.28024 -117.22674,39.27109 -118.42054,39.97969 -2.63861,1.56616 -2.66355,1.56707 -4.14196,0.15055 z m -44.42968,-70.77573 c 7.97069,-1.04382 22.92968,-3.35636 33.24218,-5.13896 10.3125,-1.7826 23.33129,-3.94892 28.93064,-4.81405 11.09066,-1.71356 13.82252,-2.75532 12.0013,-4.57655 -0.71454,-0.71454 -6.16346,-0.4499 -14.17143,0.68826 -7.15577,1.01704 -16.10426,2.2093 -19.88551,2.64948 -3.78125,0.44017 -14.55285,2.1627 -23.9369,3.82782 -19.67501,3.49118 -23.66519,3.67552 -28.31267,1.30799 -4.74035,-2.41484 -37.457839,-12.32622 -42.793376,-12.96376 -2.429871,-0.29035 -6.367371,-0.004 -8.75,0.63556 l -4.332054,1.16346 9.375,4.54897 c 17.870171,8.67102 36.698,15.69917 40.50782,15.12098 1.99805,-0.30322 10.1543,-1.40537 18.125,-2.4492 z m 246.51287,-6.04785 c 2.36987,-1.65992 1.88943,-1.76852 -5.33309,-1.20543 -9.77841,0.76235 -11.46134,1.26035 -10.34783,3.06205 1.15712,1.87223 12.22878,0.56135 15.68092,-1.85662 z M 320.125,207.76965 c -3.64526,-2.2129 -15.74386,-3.01198 -17.59381,-1.16203 -0.92489,0.92488 9.86242,2.93163 17.59381,3.27295 l 3.75,0.16555 -3.75,-2.27647 z m -173.75,-2.71418 c 3.69962,-0.9414 3.68587,-0.9562 -1.02444,-1.10211 -4.21145,-0.13045 -4.72384,-0.47954 -4.34532,-2.96039 0.26661,-1.7474 1.12795,-2.63171 2.27443,-2.33512 1.01493,0.26255 3.53283,0.87246 5.59533,1.35537 2.13531,0.49995 3.59126,1.57797 3.38134,2.50362 -0.28583,1.26035 1.1185,1.42548 6.25,0.73492 3.64026,-0.48989 9.71241,-1.12979 13.49366,-1.422 12.46129,-0.96302 29.13319,-4.12176 30.85792,-5.8465 0.93224,-0.93224 1.982,-5.31924 2.33281,-9.74887 0.35081,-4.42965 1.15482,-13.11642 1.78671,-19.30392 0.63188,-6.1875 1.54345,-22.6206 2.02571,-36.518 0.9521,-27.43739 0.63482,-29.107 -5.5312,-29.107 -2.50596,0 -2.88861,-0.33333 -1.72195,-1.499997 2.2303,-2.230296 1.81567,-3.874128 -0.80435,-3.188977 -2.21459,0.579126 -5.19565,-2.458406 -5.19565,-5.294061 0,-0.696829 2.8125,-1.266962 6.25,-1.266962 3.4375,0 6.25,-0.484148 6.25,-1.075886 0,-1.210936 -10.17689,-2.646814 -18.87597,-2.663249 -3.16303,-0.006 -7.60867,-0.658462 -9.87919,-1.449968 -3.83383,-1.33648 -3.96506,-1.558407 -1.84028,-3.112085 2.73564,-2.000345 2.01097,-2.909475 -3.95363,-4.960007 -3.31522,-1.139717 -5.28664,-1.190523 -7.47667,-0.192683 -3.84075,1.749962 -3.76665,2.983981 0.23954,3.989471 1.76759,0.443636 2.98869,1.488991 2.71356,2.32301 -0.52341,1.586669 -7.26918,2.806055 -24.05236,4.347782 l -10,0.918615 -0.37439,5.108085 c -0.47915,6.537577 1.08789,7.779912 10.41763,8.259002 9.98421,0.5127 9.51825,2.78688 -0.66824,3.26142 -4.46875,0.20818 -8.53326,0.78519 -9.03226,1.28225 -0.49899,0.49707 -0.96417,10.09845 -1.03374,21.33641 -0.0756,12.21816 -0.69295,21.67592 -1.53552,23.52517 -1.15178,2.52788 -1.0445,3.29656 0.58752,4.20989 2.31831,1.2974 3.73786,15.12045 3.83776,37.37081 0.0686,15.27645 -0.21761,14.88049 9.05124,12.52196 z m -5.3051,-24.0625 c -0.67991,-0.85937 -1.26096,-4.26742 -1.29122,-7.57346 -0.049,-5.34905 0.30346,-6.14724 3.20033,-7.24864 1.79044,-0.68071 4.97449,-1.06953 7.07566,-0.86403 3.33928,0.32658 3.87128,0.90696 4.22493,4.6091 0.6919,7.24311 -0.53545,9.59576 -5.83417,11.1833 -5.99412,1.79588 -5.86917,1.79768 -7.37553,-0.10625 z M 154.5,157.08352 c 0,-8.135 1.62424,-9.82095 8.95176,-9.29193 l 5.38654,0.38888 -0.36304,5.625 c -0.61948,9.59837 -0.93315,10 -7.8095,10 l -6.16576,0 0,-6.72195 z m 85.65757,46.6929 c 4.83042,-0.74381 9.61167,-1.93047 10.625,-2.63701 2.45887,-1.71442 -21.91891,-0.25032 -25.21646,1.51448 -3.27324,1.75178 -1.72055,3.69106 2.41985,3.02231 1.86398,-0.30105 7.3412,-1.15595 12.17161,-1.89978 z m 47.75389,-0.72616 c -0.41537,-0.41536 -1.4935,-0.45976 -2.39584,-0.0986 -0.99716,0.39902 -0.70097,0.69522 0.75522,0.7552 1.3177,0.0542 2.05598,-0.24117 1.64062,-0.65653 z m -174.86028,-4.99622 c 2.73847,-1.91809 2.76616,-2.1023 0.66515,-4.4239 -3.651,-4.0343 -2.4619,-19.82467 1.4929,-19.82467 0.98492,0 1.79077,-0.84375 1.79077,-1.875 0,-1.03125 -1.05612,-1.875 -2.34694,-1.875 -1.29082,0 -3.09238,-0.89818 -4.00346,-1.99597 -1.39706,-1.68335 -1.32201,-2.18316 0.47916,-3.19115 1.51018,-0.84514 1.90922,-2.0974 1.36249,-4.27574 -0.59641,-2.3763 -0.0205,-3.67261 2.519,-5.6702 2.92578,-2.30141 3.28956,-3.44669 3.26881,-10.29077 -0.0128,-4.23564 0.29119,-22.46679 0.67562,-40.51367 0.44795,-21.0288 0.25988,-32.812497 -0.52369,-32.812497 -0.67246,0 -1.42225,0.598787 -1.6662,1.330637 -0.24395,0.731848 -2.9627,1.651978 -6.04167,2.044731 -8.67853,1.107031 -9.57761,1.931062 -9.4555,8.666261 0.10153,5.600383 0.3288,5.980629 4.16988,6.976535 3.60087,0.933625 4.0625,1.546399 4.0625,5.392576 0,4.105662 -0.22992,4.339257 -4.27083,4.339257 -2.34896,0 -4.5104,0.70313 -4.8032,1.5625 -0.848599,2.49066 0.15389,35.1593 1.58228,51.5625 0.71841,8.25 1.58973,18.9375 1.93626,23.75 0.34654,4.8125 0.83834,11.28125 1.09289,14.375 0.25454,3.09375 0.51901,6.32813 0.5877,7.1875 0.17404,2.17724 4.01511,1.9502 7.42608,-0.43893 z m 120.61534,-5.67113 c 8.58439,-1.724 9.23208,-3.57744 1.25014,-3.57744 -3.20832,0 -5.46282,-0.3705 -5.00999,-0.82335 0.45284,-0.45283 3.49972,-0.87471 6.77084,-0.9375 l 5.94749,-0.11415 0.37215,-7.8125 0.37214,-7.8125 4.31536,0 c 4.19048,0 4.31535,-0.14255 4.31535,-4.92622 0,-2.70943 0.5625,-5.27388 1.25,-5.69878 0.6875,-0.4249 1.25,-2.40705 1.25,-4.40478 0,-4.437 2.88502,-6.22022 10.06355,-6.22022 5.07619,0 5.20319,-0.0998 4.37662,-3.4375 -0.4682,-1.89062 -0.8186,-4.28125 -0.77867,-5.3125 0.28613,-7.38891 2.53466,-32.69026 3.22236,-36.25919 0.46465,-2.41131 0.33719,-6.348812 -0.28322,-8.750004 l -1.12803,-4.365803 -13.0488,-1.001787 c -7.17685,-0.550983 -17.54881,-1.113483 -23.0488,-1.25 l -9.99999,-0.248213 -0.98697,8.75 c -0.54284,4.812497 -0.56389,25.906247 -0.0468,46.874997 0.51711,20.96875 0.96125,40.51563 0.98696,43.4375 0.0521,5.91989 -0.0563,5.87704 9.83829,3.88994 z m 10.10968,-31.50917 c -0.39195,-1.0214 -0.53006,-3.45148 -0.30691,-5.40018 0.3245,-2.83391 1.10902,-3.62372 3.9195,-3.94597 3.42144,-0.3923 3.50357,-0.26089 3.125,5 -0.32469,4.51202 -0.85345,5.46887 -3.20688,5.80306 -1.635,0.23216 -3.11726,-0.37948 -3.53071,-1.45691 z m -9.71447,-23.6092 c -0.99498,-3.80483 -0.1308,-4.29752 8.87577,-5.06032 7.60126,-0.64378 7.8125,-0.58038 7.8125,2.34479 0,2.14266 -0.69709,3.00646 -2.42623,3.00646 -1.33442,0 -2.77387,0.5625 -3.19877,1.25 -0.4249,0.6875 -2.92374,1.25 -5.55299,1.25 -3.89529,0 -4.91557,-0.51676 -5.51028,-2.79093 z m -141.570466,50.8137 c 1.576807,-4.10909 0.819928,-14.32774 -1.116264,-15.07073 -2.3537,-0.9032 -2.441721,-3.7171 -0.143858,-4.59886 1.377524,-0.52861 1.917846,-7.13718 2.645147,-32.35223 0.805326,-27.92016 0.66529,-32.42048 -1.177752,-37.849032 -1.150464,-3.388616 -1.775035,-7.423032 -1.387933,-8.965368 1.004355,-4.001668 -2.56883,-5.755053 -7.028437,-3.448902 -4.849895,2.507979 -5.293388,6.574335 -4.346733,39.854842 1.343776,47.24166 2.24956,60.66394 4.227287,62.64166 2.370474,2.37048 7.386647,2.24317 8.328543,-0.21138 z m -31.22043,-9.87863 c 0.630207,-0.01 1.410086,-0.8119 1.733062,-1.78082 0.4038,-1.2114 -0.05172,-1.5165 -1.458333,-0.97673 C 59.86158,176.08826 59.5,175.3432 59.5,171.22701 c 0,-3.3993 0.630916,-5.2421 1.970755,-5.75625 1.083915,-0.41594 2.476244,-2.08579 3.094061,-3.71076 0.629009,-1.65443 2.153429,-2.95453 3.464288,-2.95453 2.090521,0 2.428171,-1.42502 3.155937,-13.31945 C 72.764474,119.67221 71.90534,96.693892 69.418229,98.231011 68.861232,98.575253 67.386144,97.407735 66.140254,95.636525 64.894365,93.865315 61.90625,90.138121 59.5,87.353873 l -4.375,-5.062268 -0.727529,9.819433 c -0.752072,10.150682 0.88256,76.664452 2.062324,83.916672 0.453585,2.78828 1.145522,3.79275 2.165862,3.14414 0.824639,-0.5242 2.014968,-0.96171 2.645177,-0.97224 z m 323.559706,-5.14135 c 1.1929,-1.19289 -0.43715,-4.25279 -2.2655,-4.25279 -2.09397,0 -3.46009,2.09954 -2.44004,3.75 0.85375,1.3814 3.53991,1.66843 4.70554,0.50279 z M 69.5,166.93047 c 0,-1.03125 -0.544846,-1.875 -1.210769,-1.875 -0.665924,0 -0.886992,0.84375 -0.491264,1.875 0.395728,1.03125 0.940574,1.875 1.210769,1.875 0.270195,0 0.491264,-0.84375 0.491264,-1.875 z m 303.83217,-1.91897 c 1.3298,-0.71169 2.41783,-2.04779 2.41783,-2.96909 0,-1.95177 -23.60152,-4.80277 -25.52859,-3.08379 -0.69901,0.62354 -0.58642,2.27385 0.2857,4.18794 1.35528,2.97451 1.9929,3.15891 10.92327,3.15891 5.21618,0 10.572,-0.58228 11.90179,-1.29397 z m 37.94059,-4.46476 c 1.08749,-0.4173 1.97724,-1.99655 1.97724,-3.50944 0,-2.01554 -1.35819,-3.34994 -5.0818,-4.99279 -2.795,-1.23315 -5.25471,-2.04452 -5.46604,-1.80306 -0.69972,0.79952 -4.45216,8.42845 -4.45216,9.05149 0,0.3364 2.10937,0.83227 4.6875,1.10195 2.57812,0.26968 5.06337,0.58488 5.52276,0.70046 0.4594,0.1155 1.72503,-0.1313 2.8125,-0.54861 z m 20.21627,-46.74127 c 0.36322,-5.15625 0.93457,-10.19331 1.26967,-11.19346 0.64675,-1.93028 -3.1907,-10.056537 -4.74898,-10.056537 -1.68768,0 -3.5208,4.801342 -3.43218,8.989627 0.0481,2.27446 0.02,8.2535 -0.0626,13.28678 -0.0826,5.03327 0.51435,11.16476 1.32648,13.62554 l 1.4766,4.47415 1.75531,-4.87555 c 0.96542,-2.68155 2.0525,-9.0943 2.41573,-14.25055 z M 45.1828,101.57161 c -1.576434,-1.576438 -2.29411,1.41372 -2.076881,8.65323 0.335556,11.18298 1.955976,12.02568 2.389381,1.2426 0.203665,-5.06717 0.06304,-9.52029 -0.3125,-9.89583 z m 347.82621,6.14594 c -0.2112,-3.54468 -0.94651,-6.57813 -1.63401,-6.74098 -1.39991,-0.33161 -2.43561,10.81499 -1.28379,13.8166 1.47085,3.83297 3.30305,-0.61008 2.9178,-7.07562 z m 22.98293,4.48047 c 4.98307,-4.09597 7.60595,-18.392547 3.37432,-18.392547 -0.61394,0 -1.11626,0.602755 -1.11626,1.339458 0,0.736701 -1.26563,1.215565 -2.8125,1.064142 -2.75371,-0.26956 -5.93886,0.552873 -9.6875,2.501395 -1.09384,0.568569 -2.03538,3.139652 -2.25992,6.171252 -0.3031,4.09185 0.0955,5.37346 1.875,6.02843 1.24294,0.45749 2.70975,1.57734 3.25953,2.48856 1.40879,2.33494 3.47578,1.99807 7.36733,-1.20069 z m -14.96803,-4.736 c 1.21918,-5.41956 0.0752,-12.731258 -1.88941,-12.076379 -2.24956,0.749855 -3.79651,7.706689 -2.84341,12.787169 1.03985,5.54286 3.40595,5.18751 4.73282,-0.71079 z M 334.9368,99.630215 c 2.51505,-5.07418 2.0955,-9.363865 -1.24225,-12.701618 -3.45875,-3.458755 -5.92687,0.332386 -5.70506,8.763206 0.2873,10.919497 2.78521,12.335557 6.94731,3.938412 z m 29.04683,-5.190092 c 2.58139,-3.939726 1.46257,-7.192766 -2.29054,-6.659821 -2.87816,0.408701 -4.34463,4.372829 -2.95618,7.991079 1.01992,2.657847 2.95459,2.166959 5.24672,-1.331258 z M 45.347467,89.928075 c -0.89978,-8.369704 -1.611314,-8.801177 -2.436782,-1.477658 -0.709807,6.297393 -0.35195,7.855056 1.804619,7.855056 0.841077,0 1.069755,-2.306946 0.632163,-6.377398 z M 241.31937,85.145468 c 0.93465,-1.512293 -3.85262,-3.026007 -5.78771,-1.830051 -1.03346,0.638715 -0.74933,1.211641 0.92631,1.867828 3.33221,1.304898 4.03497,1.299437 4.8614,-0.03777 z M 92,79.909685 c 0,-1.461118 -5.902787,-1.427285 -6.809018,0.03903 -0.388607,0.62878 7.2e-5,1.38098 0.863729,1.671555 C 88.212273,82.346168 92,81.256361 92,79.909685 Z M 412.49126,73.07824 c 1.33154,-3.469914 0.81445,-13.718782 -0.80376,-15.931012 -0.96084,-1.313541 -4.0895,-2.435248 -8.125,-2.913026 L 397,53.457246 l 0,9.513374 0,9.513373 4.0625,1.173005 c 6.34233,1.83128 10.58642,1.616357 11.42876,-0.578758 z m -144.5798,-0.02797 c -0.41537,-0.415364 -1.4935,-0.459773 -2.39584,-0.09869 -0.99716,0.399033 -0.70097,0.695229 0.75522,0.755209 1.3177,0.05428 2.05598,-0.24116 1.64062,-0.656525 z M 243.25,70.754245 c 0,-1.319344 -2.39889,-1.873639 -3.1124,-0.719162 -0.43182,0.698715 0.0918,1.27039 1.16362,1.27039 1.07183,0 1.94878,-0.248052 1.94878,-0.551228 z m 150,-8.75 c 0,-5.115677 -0.58707,-9.664063 -1.30461,-10.107527 -2.80764,-1.73521 -19.87485,-5.157382 -21.30697,-4.272287 -1.08436,0.670171 -1.30998,3.683824 -0.79027,10.555601 0.40006,5.289701 0.97021,9.860465 1.267,10.157254 0.94389,0.943886 11.31421,2.68923 16.82235,2.83123 l 5.3125,0.136957 0,-9.301228 z m -34.375,-7.573772 0,-10 -12.5,-2.825838 c -6.875,-1.554212 -15.10675,-3.663587 -18.29276,-4.6875 -3.18603,-1.023914 -7.12353,-1.86775 -8.75,-1.875192 -1.62649,-0.0075 -5.76974,-0.894305 -9.20724,-1.970806 -7.7429,-2.424797 -30.15174,-6.976411 -34.375,-6.982145 -1.71875,-0.0024 -3.82096,-0.580009 -4.67159,-1.283725 -0.85061,-0.703715 -2.47883,-0.921741 -3.61826,-0.4845 -1.16717,0.447884 -3.06397,-0.103012 -4.34436,-1.261757 -1.24998,-1.131207 -3.14404,-1.722365 -4.20904,-1.313685 -1.06501,0.40868 -3.35674,0.0959 -5.09274,-0.695082 -2.51254,-1.144787 -3.51716,-1.074202 -4.92517,0.346048 -2.66527,2.68842 -0.88869,27.838574 2.00556,28.391766 2.24657,0.429401 3.6056,-4.212396 3.6056,-12.315062 0,-2.623489 0.5625,-5.117623 1.25,-5.542522 0.78745,-0.486667 1.25,2.436002 1.25,7.898173 0,9.369606 1.64305,12.314017 6.08483,10.904254 1.35012,-0.428517 2.81656,-0.193739 3.25874,0.521727 1.11866,1.810018 5.30961,1.63039 6.10472,-0.261654 0.46546,-1.107636 1.07205,-0.903635 2.08367,0.700762 0.78489,1.244793 2.64565,2.145532 4.13505,2.001642 1.48939,-0.14389 3.55174,0.05709 4.58299,0.446613 1.73117,0.653905 26.424,4.671123 55,8.947826 6.53125,0.977471 13.84375,1.678994 16.25,1.558939 l 4.375,-0.218282 0,-10 z m -94.13131,-8.75 c 0.0255,-2.0625 0.30562,-2.75492 0.62255,-1.53871 0.31692,1.216209 0.29608,2.903709 -0.0464,3.75 -0.34235,0.84629 -0.60165,-0.14879 -0.57617,-2.21129 z M 137.625,58.72719 c 5.29691,-1.60731 13.44222,-3.125693 46.74811,-8.714412 28.68091,-4.812648 29.45662,-4.875108 40,-3.220776 5.91354,0.927876 12.77897,1.42731 15.25649,1.109854 l 4.5046,-0.577194 0.81214,-13.273219 c 0.60566,-9.898815 0.41382,-13.650675 -0.7546,-14.757942 -1.44005,-1.36467 -16.42442,-5.410155 -27.39827,-7.396996 -2.51983,-0.456223 -6.45733,-0.21142 -8.75,0.544006 -2.29266,0.755426 -12.60597,3.332392 -22.91847,5.726592 -10.3125,2.394202 -20.71875,4.908533 -23.125,5.587404 -2.40625,0.678871 -13.9375,3.566515 -25.625,6.416986 -11.6875,2.850472 -21.66326,5.818594 -22.16836,6.595828 -1.19574,1.839975 -1.23382,22.594305 -0.0436,23.784481 1.10131,1.101306 18.2024,-0.228625 23.462,-1.824612 z M 254.5,60.055473 c 0,-0.6875 -0.5625,-1.25 -1.25,-1.25 -0.6875,0 -1.25,0.5625 -1.25,1.25 0,0.6875 0.5625,1.25 1.25,1.25 0.6875,0 1.25,-0.5625 1.25,-1.25 z M 2.3745802,186.30547 c 0,-3.78125 0.2343321,-5.32812 0.5207379,-3.4375 0.2864058,1.89063 0.2864058,4.98438 0,6.875 -0.2864058,1.89063 -0.5207379,0.34375 -0.5207379,-3.4375 z M 29.743686,89.430473 c 0.02548,-2.0625 0.305623,-2.75492 0.622553,-1.53871 0.316929,1.216209 0.296086,2.903709 -0.04631,3.75 -0.342409,0.84629 -0.601715,-0.14879 -0.57624,-2.21129 z M 80.125,46.305473 c -1.154131,-1.867422 0.451719,-3.75 3.198771,-3.75 2.909896,0 3.245295,3.168223 0.448995,4.241264 -2.592991,0.995024 -2.741555,0.975016 -3.647766,-0.491264 z"
       id="path9903"
       inkscape:connector-curvature="0" />
    <path
       style="fill:#50340a"
       d="M 176.79166,292.7478 C 176.5625,292.16607 157.8125,282.24741 135.125,270.70632 112.4375,259.16524 84.875,244.8806 73.875,238.9627 53.938507,228.23705 14.149015,208.80547 12.122891,208.80547 c -2.7957045,0 -3.8027205,-4.53756 -4.4503266,-20.05295 C 7.286384,179.5004 6.7372279,167.88795 6.4522175,162.94709 L 5.934017,153.9637 9.9045085,153.11525 C 15.131975,151.99819 17,150.36485 17,146.91115 c 0,-1.56101 0.84375,-3.16198 1.875,-3.55771 1.399427,-0.537 1.875,-2.77155 1.875,-8.80997 0,-4.44975 -0.528968,-8.41737 -1.175484,-8.81694 -0.646515,-0.39957 -2.366176,0.55157 -3.821468,2.11364 l -2.645985,2.84013 -2.400737,-3.12491 c -1.3204049,-1.71871 -2.413244,-3.40984 -2.4285312,-3.75807 -0.055932,-1.2741 10.8064872,-4.03501 18.3898392,-4.67415 5.187249,-0.4372 8.407856,-0.14619 9.632744,0.87037 1.012061,0.83994 2.386752,1.18931 3.054871,0.77639 0.668117,-0.41292 1.498708,0.24178 1.845757,1.45489 0.856948,2.99547 2.772607,43.76943 2.276563,48.45565 -0.218319,2.0625 0.0276,8.53125 0.546472,14.375 l 0.943415,10.625 0.819027,-6.88165 c 0.450464,-3.78491 0.923584,-19.0289 1.051377,-33.87555 0.202162,-23.48652 1.438374,-40.3107 3.08279,-41.95511 1.11286,-1.11286 2.11327,13.37426 3.337937,48.33731 0.710402,20.28125 1.600347,37.86207 1.977654,39.06847 0.833045,2.66358 15.19691,9.72916 38.535694,18.95568 l 17.396935,6.87753 11.35307,-1.79063 c 45.31048,-7.14647 77.31987,-11.86105 80.52996,-11.86105 2.74217,0 4.00839,-0.72075 4.61304,-2.62582 0.45837,-1.44421 0.34373,-3.1155 -0.25475,-3.71399 -1.18953,-1.18952 -26.06442,1.98249 -59.75495,7.61985 l -21.21977,3.55066 -25.03023,-8.2115 c -13.766635,-4.51632 -25.811141,-8.57802 -26.765575,-9.02598 -1.445934,-0.67865 -1.701745,-9.87455 -1.53392,-55.14135 0.110779,-29.87978 -0.269159,-56.014367 -0.844305,-58.076867 -0.912303,-3.271558 -1.849703,-3.90948 -7.347291,-5 -3.465865,-0.6875 -7.219738,-2.016055 -8.341941,-2.952345 C 52.317558,75.428342 50.75,78.063672 50.75,88.766242 c 0,5.521578 -0.500279,10.039231 -1.111731,10.039231 -0.611453,0 -0.967258,-4.749056 -0.79068,-10.553458 C 49.094584,80.132902 49.783527,76.6564 51.83432,73.180565 53.477286,70.395942 54.5,66.531901 54.5,63.109023 c 0,-4.071402 0.49405,-5.55355 1.851185,-5.55355 1.7983,0 2.702911,2.311812 3.423871,8.75 0.32223,2.877515 0.916581,3.154612 7.504879,3.498909 3.996542,0.208854 8.410828,-0.300654 10,-1.154224 C 81.396293,66.439195 94.5,66.236695 94.5,68.384047 c 0,0.919284 0.868409,1.671426 1.929796,1.671426 1.142871,0 1.780021,-0.889591 1.5625,-2.181568 -0.292,-1.734345 0.913964,-2.381495 5.882704,-3.156807 17.76018,-2.77126 25.12684,-3.304947 28.2767,-2.04854 1.80217,0.718852 5.45842,1.128108 8.125,0.909459 3.84345,-0.31515 4.8483,-0.904384 4.8483,-2.843001 0,-2.939285 -0.8058,-2.738589 38.125,-9.495611 l 29.375,-5.098472 16.25,2.078497 c 14.30072,1.829168 69.11682,9.986876 101.25,15.067978 22.26671,3.520957 29.41239,4.3925 30.5004,3.720075 0.60843,-0.376033 4.47639,0.392934 8.59546,1.708818 7.07797,2.261132 12.71347,3.356434 22.77914,4.427301 2.40625,0.255995 6.89516,1.10408 9.97535,1.884631 3.08019,0.780552 7.37614,1.266192 9.54655,1.0792 C 417.22496,75.616086 427,80.899866 427,84.47394 c 0,1.526482 -0.86134,3.490263 -1.91407,4.363958 -1.57119,1.303975 -2.18697,1.22361 -3.4375,-0.448622 -1.68172,-2.24882 -3.49745,-1.513114 -5.65474,2.291197 -1.23667,2.180797 -1.42253,2.220698 -1.45568,0.3125 -0.049,-2.819953 -1.4474,-2.75735 -6.90717,0.309223 l -4.44521,2.496722 -1.18688,-3.121722 c -0.65278,-1.716948 -1.47061,-3.121723 -1.81741,-3.121723 -0.34679,0 -1.79968,2.291723 -3.22864,5.092717 -2.08525,4.087427 -2.93953,4.809365 -4.3277,3.657283 -1.38908,-1.152832 -2.25515,-0.405256 -4.39909,3.797217 -2.66171,5.21738 -2.67516,5.22458 -4.60776,2.46541 -2.65868,-3.795794 -4.07431,-1.30433 -4.09901,7.2141 -0.0211,7.29171 2.49087,9.94688 5.50751,5.82138 1.56852,-2.14508 1.70416,-2.11544 2.55261,0.5578 0.59794,1.88392 0.21604,3.57468 -1.14785,5.08176 -1.74996,1.93368 -1.83554,3.08602 -0.59507,8.01236 0.79686,3.16461 1.12107,6.60797 0.72047,7.65191 -0.40059,1.04394 -0.33956,2.88244 0.13561,4.08556 0.68442,1.73289 1.00098,1.42959 1.52327,-1.45937 0.85165,-4.71076 3.78431,-5.84009 3.78431,-1.45729 0,4.7824 2.1921,3.91471 3.68427,-1.45834 1.7952,-6.46421 1.66193,-14.96369 -0.24677,-15.73817 -3.93291,-1.59582 2.8385,-3.15709 12.14852,-2.80105 l 10.03898,0.38391 -0.34273,3.60891 c -0.6332,6.6676 0.96858,14.05075 3.13899,14.46874 1.64836,0.31744 2.08936,2.22278 2.28846,9.88701 0.22852,8.79688 1.8817,14.90485 4.02175,14.85902 3.36193,-0.072 4.252,-2.99523 5.2523,-17.24959 0.58435,-8.32716 1.33875,-15.58735 1.67644,-16.13375 0.33769,-0.54639 0.96003,-7.86379 1.38295,-16.26089 0.76261,-15.141309 0.73884,-15.323909 -2.87837,-22.102422 -2.00605,-3.759238 -3.33253,-7.149807 -2.94774,-7.534597 0.38479,-0.38479 2.79569,-0.699618 5.35755,-0.699618 4.39899,0 7.15887,2.397428 5.6222,4.883829 -0.30872,0.499523 -1.16264,24.776888 -1.8976,53.949698 -0.73495,29.17281 -1.63467,54.8696 -1.99937,57.10397 -0.65795,4.03094 -0.71852,4.06252 -7.79397,4.06353 -9.31778,0.001 -21.54147,2.63087 -37.75586,8.122 -12.54544,4.2486 -13.89121,4.44497 -30.47665,4.44712 -13.46752,0.001 -18.0046,-0.42556 -20.26852,-1.90895 -1.60428,-1.05116 -3.75394,-1.9112 -4.77703,-1.9112 -1.0231,0 -3.28849,-0.65078 -5.03421,-1.44618 -2.41243,-1.09918 -2.84998,-1.83668 -1.8235,-3.0735 1.61453,-1.94542 2.06282,-1.83504 -22.62009,-5.56973 -15.42768,-2.33431 -21.38039,-2.63836 -40,-2.04311 -24.53734,0.78442 -42.06861,2.95537 -42.97675,5.32194 -0.33085,0.86217 0.063,2.40188 0.8751,3.42157 1.2855,1.61399 2.85207,1.63946 12.10165,0.1968 5.84375,-0.91145 13.63748,-2.57424 17.31939,-3.69507 7.4927,-2.28092 8.88755,-2.14474 32.68061,3.19068 8.59375,1.92709 20.40625,4.11353 26.25,4.85875 11.63131,1.4833 34.72566,5.5056 47.5,8.27299 9.53411,2.06544 10.91619,1.79368 39.03166,-7.67484 6.56196,-2.20988 10.80616,-1.84942 6.34378,0.53878 -1.50862,0.80737 -4.24152,1.59199 -6.07314,1.74357 -2.08861,0.17287 -3.708,1.26923 -4.34346,2.94062 -0.67149,1.76615 -3.25962,3.39798 -7.67354,4.83825 -3.66316,1.19527 -13.9728,4.8551 -22.9103,8.13293 -8.9375,3.27783 -53.9375,18.5098 -100,33.84884 -46.0625,15.33904 -83.9375,28.35211 -84.16666,28.91794 -0.54342,1.34171 -2.3839,1.32347 -2.91668,-0.0289 z m 58.67188,-79.95795 c 0.27214,-0.81641 -0.39583,-1.48438 -1.48438,-1.48438 -1.08854,0 -1.97916,0.89063 -1.97916,1.97917 0,2.20741 2.69095,1.82298 3.46354,-0.49479 z m 4.13021,-0.57813 c -0.15461,-1.49462 -1.86911,-1.20517 -2.40625,0.40625 -0.275,0.825 0.175,1.275 1,1 0.825,-0.275 1.45781,-0.90781 1.40625,-1.40625 z M 157.625,205.6929 c 5.5,-0.91581 13.09375,-2.01443 16.875,-2.44138 12.38187,-1.39806 30.60306,-4.65661 31.66319,-5.66242 0.57101,-0.54175 1.29877,-8.22408 1.61726,-17.07181 2.18314,-60.64857 2.46903,-75.1699 1.53034,-77.73069 -0.58344,-1.59163 -1.06079,-4.216632 -1.06079,-5.833334 0,-1.616703 -0.70313,-3.203036 -1.5625,-3.525186 -1.09375,-0.410007 -0.84895,-1.134374 0.81597,-2.414537 3.98795,-3.066345 1.36081,-4.295891 -11.04172,-5.167702 -14.18165,-0.99687 -15.72341,-1.488409 -15.36326,-4.898033 0.21666,-2.051191 -0.75409,-2.914482 -4.48494,-3.98845 -2.61879,-0.753852 -5.33349,-2.193745 -6.03266,-3.199762 -0.91507,-1.316663 -1.44228,-1.411056 -1.88179,-0.336918 -0.33581,0.820713 -2.54299,2.12996 -4.90484,2.90944 -5.06921,1.672993 -5.514,3.36959 -1.16926,4.46005 1.71875,0.431379 3.125,1.173898 3.125,1.65004 0,1.060779 -15.82484,3.780675 -24.375,4.189455 l -6.25,0.29881 0,6.875 0,6.874997 7.09034,0.63201 c 9.7775,0.87153 10.61456,2.49299 1.28697,2.49299 -10.06006,0 -10.5546,0.9625 -10.17739,19.80774 0.26924,13.45078 -0.105,18.3959 -1.9889,26.27675 -0.41281,1.72695 0.0424,3.80931 1.0929,5 1.67423,1.89756 3.1754,23.49504 3.28972,47.3291 l 0.0314,6.53859 5.9375,-0.69983 c 3.26563,-0.38491 10.4375,-1.44912 15.9375,-2.36492 z m -15.94239,-25.94993 c -0.32167,-0.85937 -0.24122,-4.09375 0.17876,-7.1875 0.69872,-5.14686 1.08239,-5.65267 4.51363,-5.95065 5.31827,-0.46183 6.57246,0.87527 5.9146,6.30559 -0.48469,4.00078 -1.24915,5.01244 -4.95896,6.5625 -5.28284,2.20731 -4.92923,2.1904 -5.64803,0.27006 z m 14.65855,-18.49225 c -0.44351,-0.71762 -0.16159,-2.0817 0.62651,-3.0313 0.78809,-0.94958 1.59898,-3.31557 1.80198,-5.25773 0.28929,-2.76773 1.0838,-3.61673 3.67472,-3.92674 3.22564,-0.38596 3.30563,-0.22716 3.30563,6.5625 l 0,6.95802 -4.30123,0 c -2.36567,0 -4.6641,-0.58713 -5.10761,-1.30475 z M 118.25,188.14125 c 0,-15.36768 -0.36008,-19.55241 -1.72758,-20.07718 -0.95017,-0.36461 -2.10082,-2.99706 -2.55701,-5.84988 -0.69929,-4.37315 -0.41883,-5.49667 1.78755,-7.16094 2.23888,-1.6888 2.72811,-3.77263 3.38622,-14.42339 1.16333,-18.8271 1.12303,-68.978845 -0.0564,-70.158257 -0.57046,-0.57046 -1.69433,-0.151565 -2.4975,0.930878 -0.80316,1.082441 -4.54625,2.487807 -8.31798,3.123034 -6.7567,1.137951 -6.87068,1.228587 -7.74046,6.154958 -1.520854,8.613995 -1.052627,58.862267 0.79849,85.690887 1.0429,15.11499 1.34695,27.57824 0.7386,30.2756 -1.18722,5.26399 -0.42304,6.24895 6.94241,8.94816 9.64537,3.53472 9.24365,4.29325 9.24365,-17.45387 z m -24.247918,-4.97776 c 0.0699,-8.24065 0.270171,-29.04552 0.445054,-46.23302 C 94.62202,119.74297 94.427689,99.492973 94.01529,91.930473 93.296511,78.749645 93.145693,78.165056 90.371813,77.808016 88.7803,77.603163 85.90318,78.034361 83.978214,78.766232 c -2.720525,1.034341 -3.1923,1.701358 -2.118491,2.995218 1.044732,1.258826 0.773171,2.215027 -1.114137,3.923018 C 78.453568,87.758717 78.25,89.54199 78.25,107.54612 c 0,10.78175 0.371217,34.86519 0.824927,53.51874 l 0.824927,33.91556 5.112573,1.82823 c 8.845467,3.16309 8.847113,3.16059 8.989655,-13.64516 z M 240.75,192.74859 c 8.55946,-1.5719 11.875,-2.68857 11.875,-3.99945 0,-1.17763 -1.3218,-1.83418 -3.75,-1.86269 -3.43061,-0.0402 -3.80835,-0.47739 -4.43509,-5.13224 -0.91035,-6.76132 -0.36297,-7.94874 3.66425,-7.94874 4.58458,0 6.39584,-2.12396 6.39584,-7.5 0,-2.475 0.51921,-5.03437 1.15381,-5.6875 0.6346,-0.65312 1.33773,-2.875 1.5625,-4.9375 0.38229,-3.50781 0.80941,-3.79036 6.61343,-4.375 l 6.20472,-0.625 0.22915,-10.625 c 0.12604,-5.84375 0.58948,-18.5 1.02986,-28.125 0.44039,-9.625 0.34548,-18.169089 -0.21091,-18.986868 -0.55962,-0.822529 -6.82121,-2.083047 -14.0141,-2.821179 -13.37817,-1.372858 -15.52332,-1.990747 -12.7856,-3.682755 2.38143,-1.4718 -0.60577,-3.437491 -6.65786,-4.381131 -6.21379,-0.968854 -9.36057,0.626999 -6.95406,3.526668 1.42857,1.721332 1.14758,1.970268 -2.2239,1.970268 -2.53604,0 -4.3027,0.828924 -5.15306,2.417824 -1.43872,2.688263 -1.88121,102.828293 -0.46064,104.248843 1.23372,1.23373 4.7491,0.94461 17.91666,-1.47355 z m 3.98064,-36.02319 c 0.52736,-6.41205 4.14436,-6.79348 4.14436,-0.43705 0,3.21644 -0.59441,4.47236 -2.26936,4.79492 -1.92514,0.37075 -2.20954,-0.29027 -1.875,-4.35787 z m 3.61805,-22.39909 c 0.06,-1.45619 0.35617,-1.75237 0.7552,-0.75521 0.36108,0.90234 0.31669,1.98046 -0.0986,2.39584 -0.41537,0.41536 -0.7108,-0.32293 -0.65652,-1.64063 z M 260.75,177.00425 c 0,-0.30318 -0.5625,-0.89888 -1.25,-1.32378 -0.6875,-0.4249 -1.25,-0.17685 -1.25,0.55123 0,0.72807 0.5625,1.32377 1.25,1.32377 0.6875,0 1.25,-0.24805 1.25,-0.55122 z m 25,-6.42814 c 0,-0.92029 1.26562,-2.85957 2.8125,-4.30952 2.72406,-2.55339 2.73879,-2.6906 0.46821,-4.36365 -2.25869,-1.66429 -2.09679,-5.59747 0.23041,-5.59747 2.09149,0 4.34077,-13.23911 3.45448,-20.33277 -0.94716,-7.58079 -2.4726,-10.25975 -6.5253,-11.45968 -2.47855,-0.73385 -2.73934,-0.23964 -3.39631,6.43628 -1.36307,13.85094 -2.28548,41.45417 -1.43143,42.83605 1.07079,1.73256 4.38744,-0.69344 4.38744,-3.20924 z m 99.77989,1.5595 c 0.49152,-2.53446 -3.16464,-4.19539 -5.06094,-2.29909 -0.984,0.984 -0.90846,1.91068 0.27164,3.3326 1.95199,2.352 4.22797,1.86085 4.7893,-1.03351 z M 373.25,165.93764 c 1.74116,-0.88089 3.125,-2.67173 3.125,-4.04408 0,-2.209 -1.33025,-2.59496 -12.89529,-3.74142 -13.98079,-1.38594 -15.39339,-0.94304 -14.04396,4.40333 0.67197,2.66232 1.70675,3.23473 6.989,3.86613 10.4524,1.24937 13.57674,1.15951 16.82525,-0.48396 z m -105.13035,-2.02515 c 0.95955,-0.60759 1.41584,-1.96157 1.01396,-3.00883 -0.78577,-2.0477 -5.1077,-1.58959 -8.23702,0.8731 -1.4014,1.10286 -1.1649,1.51813 1.25,2.19486 4.16068,1.16597 4.03632,1.1672 5.97306,-0.0591 z M 414.25,159.80547 c 0.825,-0.825 1.5,-3.075 1.5,-5 0,-3.04245 -0.4821,-3.5 -3.68789,-3.5 -2.0941,0 -4.1758,-0.87183 -4.81686,-2.01736 -1.85255,-3.31034 -5.93175,-0.95175 -8.15861,4.7173 -1.11157,2.82974 -1.72133,5.62988 -1.35505,6.22253 1.01292,1.63895 14.80986,1.28608 16.51841,-0.42247 z m -6.08786,-21.3125 c 0.0484,-1.89062 -0.40104,-3.4375 -0.99859,-3.4375 -1.36565,0 -2.84658,8.6926 -1.77603,10.42479 1.01763,1.64654 2.65964,-2.48852 2.77462,-6.98729 z M 408.25,125.6067 c 0,-0.99067 -0.5625,-1.80123 -1.25,-1.80123 -0.6875,0 -1.25,1.1582 -1.25,2.57378 0,1.41557 0.5625,2.22612 1.25,1.80122 0.6875,-0.4249 1.25,-1.5831 1.25,-2.57377 z m -85.53603,-7.51677 c -0.41888,-1.66895 -1.31338,-3.03446 -1.98778,-3.03446 -1.38698,0 -1.69296,7.86656 -0.35793,9.2016 1.469,1.469 3.15183,-2.95532 2.34571,-6.16714 z m 32.27729,4.98831 c 0.41731,-1.08748 0.75874,-3.33748 0.75874,-5 0,-1.79038 0.7301,-3.02277 1.79076,-3.02277 0.98493,0 2.18562,-1.24405 2.6682,-2.76455 0.48259,-1.5205 3.05175,-4.91724 5.70924,-7.5483 4.16078,-4.11941 4.8318,-5.552114 4.8318,-10.31647 0,-5.925889 -1.56961,-7.627717 -7.5,-8.131787 -5.37229,-0.456631 -6.27804,-0.07789 -7.5,3.13611 -0.65346,1.71875 -1.70951,3.125 -2.34677,3.125 -2.32545,0 -3.90323,8.159867 -3.90323,20.186527 0,11.24816 0.20472,12.31347 2.36626,12.31347 1.30145,0 2.7077,-0.88975 3.125,-1.97723 z m -22.17445,-8.02277 c 1.73549,-2.0625 3.88356,-3.75 4.77351,-3.75 3.93514,0 4.28815,-14.85363 0.52104,-21.923194 -1.45125,-2.723491 -3.48492,-6.546248 -4.51928,-8.495014 -2.19439,-4.13431 -2.89538,-3.583465 -5.93328,4.662498 -1.80929,4.911036 -2.11684,8.366402 -1.55764,17.5 0.6499,10.61511 1.62489,15.75571 2.98828,15.75571 0.31457,0 1.9919,-1.6875 3.72737,-3.75 z M 254.5,76.198823 c 0,-0.931696 2.90444,-1.084481 9.27231,-0.487762 11.22774,1.052124 13.23071,0.214327 9.3538,-3.912458 -3.02922,-3.224461 -10.46007,-4.106521 -14.8414,-1.76171 -1.68784,0.903304 -3.91414,0.517504 -8.35531,-1.447906 -3.32993,-1.47363 -8.02315,-2.839325 -10.4294,-3.034879 -4.30598,-0.349943 -10,2.196098 -10,4.471427 0,1.687956 8.42916,3.764886 15.3125,3.772967 4.44135,0.0053 5.9375,0.479441 5.9375,1.881971 0,1.03125 0.84375,1.875 1.875,1.875 1.03125,0 1.875,-0.610492 1.875,-1.35665 z m -157.739584,-1.2371 c -0.246354,-0.739062 -0.982291,-1.34375 -1.635416,-1.34375 -0.653125,0 -1.389062,0.604688 -1.635416,1.34375 -0.246355,0.739063 0.489582,1.34375 1.635416,1.34375 1.145834,0 1.881771,-0.604687 1.635416,-1.34375 z M 349.5,73.254245 c 0,-0.303177 -0.5625,-0.898873 -1.25,-1.323772 -0.6875,-0.424898 -1.25,-0.176845 -1.25,0.551229 0,0.728074 0.5625,1.323771 1.25,1.323771 0.6875,0 1.25,-0.248052 1.25,-0.551228 z M 183.80901,69.948711 c -0.40246,-0.65121 -1.26456,-0.854724 -1.91577,-0.452255 -0.65122,0.40247 -0.85473,1.264571 -0.45225,1.91578 0.40246,0.65121 1.26456,0.854724 1.91577,0.452255 0.65122,-0.40247 0.85473,-1.264571 0.45225,-1.91578 z m 99.12831,-6.872574 c -1.19118,-1.191197 -3.57936,0.738249 -2.69162,2.174625 0.52765,0.853754 1.22683,0.832185 2.12455,-0.06554 0.73595,-0.735945 0.99114,-1.685034 0.56707,-2.109085 z m -27.74501,-1.879579 c 1.07266,-1.735598 -1.30495,-4.182542 -3.0288,-3.117138 -1.43557,0.88723 -0.51636,4.476053 1.14645,4.476053 0.57338,0 1.42043,-0.611512 1.88235,-1.358915 z M 411.56779,211.0377 c -0.76243,-2.91554 0.87715,-4.68073 4.37768,-4.71309 1.52724,-0.0141 1.88398,0.7188 1.35965,2.79336 -1.26157,4.99158 -4.63855,6.12152 -5.73733,1.91973 z M 2.3575177,185.68047 c 0.00938,-3.4375 0.2521409,-4.69538 0.5394588,-2.79531 0.287318,1.90008 0.2796399,4.71258 -0.017063,6.25 -0.2967024,1.53743 -0.5317807,-0.0172 -0.5223963,-3.45469 z M 439.5,61.427747 c -1.03125,-0.578439 -4.125,-1.497442 -6.875,-2.042231 -2.98751,-0.591843 -4.09676,-1.200755 -2.75591,-1.512838 1.23425,-0.287272 4.00939,0.09307 6.16697,0.845213 3.00972,1.049189 4.156,1.000316 4.92428,-0.209946 0.67395,-1.061675 1.00764,-0.65785 1.02052,1.235028 0.0215,3.161462 0.0805,3.121437 -2.48086,1.684774 z m -26.08218,-5.545056 c -1.66501,-2.006223 -14.57655,-5.090188 -16.45372,-3.93003 -0.72799,0.44992 -2.04109,0.222587 -2.918,-0.505184 -2.15901,-1.791829 -17.44358,-5.26113 -25.29038,-5.740429 -3.5031,-0.213976 -7.4406,-1.006646 -8.75,-1.761488 -2.12736,-1.22638 -12.73711,-3.882643 -49.88072,-12.488162 -18.98496,-4.398481 -36.67985,-8.173631 -56.25,-12.00077 -4.8125,-0.941132 -13.25,-2.868366 -18.75,-4.282741 -22.23846,-5.7188235 -21.25664,-5.6325084 -31.67002,-2.784225 -5.26899,1.441183 -19.98623,5.131625 -32.70498,8.200984 -12.71875,3.069359 -30.3652,7.336247 -39.21434,9.481975 -8.84914,2.145727 -17.13198,4.552457 -18.4063,5.348287 -1.67476,1.045904 -2.6953,1.068625 -3.68195,0.08197 -0.98665,-0.986648 1.17012,-2.070106 7.7813,-3.90895 5.03046,-1.399177 19.83379,-5.627056 32.89629,-9.395283 32.28091,-9.312292 55.40734,-15.6971613 60.41332,-16.6792415 2.62117,-0.5142211 3.59479,-1.1681381 2.62849,-1.7653503 -0.87162,-0.5386893 0.43367,-0.9485849 3.02069,-0.9485849 2.50554,0 4.30651,0.4029264 4.00215,0.895392 -0.30436,0.4924656 4.90034,2.1883851 11.56599,3.76871 6.66565,1.580325 18.30686,4.4956307 25.86936,6.4784567 7.5625,1.982826 35.40625,8.939448 61.875,15.459159 54.43937,13.40936 106.58896,26.820574 107.38417,27.615792 0.29288,0.292869 -2.30488,0.53249 -5.77278,0.53249 -3.74099,0 -6.86988,-0.680303 -7.69357,-1.672782 z M 100.75,36.362586 c 1.03125,-0.697858 2.95313,-1.277444 4.27083,-1.287971 3.19806,-0.02555 2.20033,0.689895 -2.39583,1.717983 -2.738645,0.612593 -3.244322,0.49662 -1.875,-0.430012 z"
       id="path9901"
       inkscape:connector-curvature="0" />
    <path
       style="fill:#324406"
       d="M 176.79166,292.7384 C 176.5625,292.15151 156.6875,281.66039 132.625,269.4248 108.5625,257.1892 82.835625,243.8704 75.454166,239.82747 62.29491,232.61996 40.114852,221.47139 19.984321,211.94612 L 9.8436415,207.14782 8.9434714,195.78915 C 7.4509479,176.95595 6.9377739,168.05529 7.045376,162.86797 c 0.024956,-1.20312 -0.1156687,-3.59375 -0.3125,-5.3125 -0.2708341,-2.36493 0.2802848,-3.21613 2.265945,-3.49971 2.413044,-0.34461 2.689186,0.39855 3.4375,9.2511 0.447523,5.29419 0.81987,15.02531 0.827436,21.62471 0.01845,16.09462 0.935404,21.10995 4.039659,22.0952 2.921883,0.92738 11.777215,-2.98837 12.938528,-5.7213 1.273429,-2.99676 2.023331,-72.95678 0.800926,-74.72017 -0.678856,-0.97929 -4.850529,-1.78417 -10.804852,-2.08468 -5.334482,-0.26924 -9.948149,-0.73861 -10.252595,-1.04306 -0.9348855,-0.93488 13.783561,-4.65209 18.420171,-4.65209 8.173509,0 8.287295,0.35555 9.200835,28.75 1.107121,34.41135 3.544146,56.472 6.573016,59.50088 2.25381,2.25381 5.320555,0.24927 5.320555,-3.4777 0,-1.3314 0.5625,-2.07308 1.25,-1.64818 0.6875,0.4249 1.25,1.87507 1.25,3.22259 0,1.974 0.593382,2.30111 3.053956,1.68355 1.679675,-0.42157 3.783379,-0.31569 4.674898,0.2353 1.151224,0.7115 0.719027,1.22294 -1.491455,1.76491 l -3.112399,0.76312 4.024755,2.11535 c 4.12931,2.1703 6.625206,2.28918 8.014222,0.38172 0.433938,-0.5959 2.874813,-0.39506 5.424165,0.4463 3.30494,1.09073 4.99697,2.56756 5.895804,5.14595 0.693339,1.98893 1.76809,3.61621 2.388335,3.61621 0.620245,0 1.127719,0.77015 1.127719,1.71145 0,1.67357 8.55855,3.89667 9.887042,2.56818 0.353827,-0.35383 -0.04327,-1.74274 -0.882453,-3.08648 -1.016529,-1.62772 -1.077609,-2.44315 -0.183004,-2.44315 2.191231,0 6.178415,2.48839 6.178415,3.85594 0,1.68091 7.40271,9.15573 10.86164,10.96744 3.33289,1.74569 4.71323,0.13724 3.62006,-4.21829 -0.66358,-2.64389 -0.19205,-3.14849 3.94482,-4.22149 2.58416,-0.67027 11.44848,-2.1057 19.69848,-3.18983 8.25,-1.08414 20.34375,-2.80477 26.875,-3.82362 6.53125,-1.01886 13.90637,-1.85645 16.38916,-1.86131 3.99255,-0.007 4.45855,0.31615 4.03291,2.80366 -0.2647,1.54688 0.0516,3.62008 0.70307,4.60713 1.81291,2.74714 5.327,-0.72269 4.86587,-4.8046 -0.2013,-1.78201 0.18147,-3.24003 0.85059,-3.24003 0.66914,0 1.05075,1.26563 0.84805,2.8125 -0.3487,2.66095 0.0606,2.8125 7.59589,2.8125 4.52791,0 8.61169,-0.64722 9.46446,-1.5 1.82464,-1.82463 2.00646,-14.28945 0.22449,-15.39076 -0.70153,-0.43357 -7.59215,0.12915 -15.3125,1.25048 -27.29974,3.96512 -46.6488,6.93485 -55.91199,8.58148 -9.12868,1.62273 -9.63775,1.57578 -19.375,-1.78667 -10.5726,-3.65093 -16.490435,-5.60753 -32.1859,-10.64154 l -9.685901,-3.10656 0.125695,-55.9094 C 74.714209,106.10412 74.301704,86.461202 73.34484,82.90768 L 71.93509,77.672271 64.620587,76.84473 c -14.190361,-1.605458 -13.160072,-5.854182 1.283293,-5.292063 4.625899,0.180035 9.038309,-0.281637 10,-1.046305 0.946616,-0.75268 5.175136,-1.665617 9.396712,-2.02875 6.072478,-0.522344 8.103574,-0.232259 9.724739,1.388908 1.898865,1.898863 2.100917,1.851187 2.755013,-0.650082 0.388226,-1.484576 1.918342,-2.997577 3.400256,-3.362225 6.67535,-1.642566 22.6751,-2.118911 36.26511,-1.079686 8.15139,0.623335 16.16701,0.875974 17.8125,0.56142 3.33338,-0.637215 4.01438,-3.370597 1.11679,-4.482506 -5.63084,-2.160758 0.8344,-4.654043 20.03392,-7.725965 6.85634,-1.097015 16.60437,-2.799495 21.66228,-3.783288 5.05791,-0.983793 11.77873,-1.788715 14.93514,-1.788715 10.04877,0 40.69127,4.206072 51.06105,7.008777 3.54331,0.957672 8.43311,1.741223 10.86623,1.741223 4.82853,0 77.69729,10.866118 100.81638,15.033639 29.67325,5.348995 31.51725,5.95541 29.24734,9.618278 -0.75772,1.222696 -2.72647,2.411338 -4.375,2.641428 -1.64854,0.23009 -3.53172,0.933215 -4.18484,1.5625 -1.49417,1.439635 -9.50037,1.46207 -11.75574,0.03294 -0.98022,-0.621129 -3.20762,-0.501316 -5.28956,0.284531 -4.60975,1.739985 -14.63061,-0.743581 -17.07366,-4.23153 -2.40046,-3.427132 -8.55533,-3.129957 -13.5144,0.652514 l -4.05684,3.094302 -2.01042,-3.06829 c -3.19084,-4.869837 -8.94,-7.236183 -15.27327,-6.286451 -6.03582,0.905131 -7.96361,3.17437 -7.96361,9.374113 0,4.65817 -3.10289,12.542028 -4.93621,12.542028 -0.72259,0 -1.31379,0.871684 -1.31379,1.937075 0,1.64256 -3.12319,8.87437 -4.50376,10.42855 -0.2397,0.26984 -1.35404,-0.27142 -2.4763,-1.20282 -1.73872,-1.443 -2.27192,-1.37692 -3.60552,0.44688 -2.90185,3.96853 -4.41442,2.41014 -4.41442,-4.54816 0,-6.957158 -1.80804,-14.080068 -4.2447,-16.722402 -2.21959,-2.406925 -10.56081,0.640774 -12.55126,4.585959 -1.84019,3.647331 -2.97627,23.643273 -3.94474,69.430983 -0.40595,19.19217 -1.17069,31.8097 -1.98761,32.79403 -0.73029,0.87995 -3.9308,1.60198 -7.11224,1.60453 -9.75601,0.007 -44.36107,4.95359 -45.30104,6.47446 -0.74144,1.19969 -0.0915,14.67253 0.75916,15.73675 0.34983,0.43766 18.25053,-2.6505 31.58912,-5.44962 7.99697,-1.67819 10.9629,-1.84834 13.125,-0.75297 4.2944,2.17565 27.47976,7.81392 42.79331,10.40658 10.78739,1.82635 43.65601,7.79824 46.875,8.5167 1.83811,0.41025 -10.47369,4.6712 -90.625,31.36414 -48.125,16.02715 -87.6875,29.60356 -87.91666,30.16981 -0.54502,1.34665 -2.38543,1.32296 -2.91668,-0.0375 z M 179.5,223.07631 c 0,-3.9159 -2.93559,-3.4873 -3.52444,0.51458 -0.26526,1.80276 0.25958,2.71458 1.5625,2.71458 1.27628,0 1.96194,-1.12853 1.96194,-3.22916 z M 118.53963,189.3957 c -0.30644,-17.10113 -0.83976,-20.55884 -4.18547,-27.13576 -1.73189,-3.40453 -1.31493,-5.50854 1.45946,-7.3645 2.19502,-1.46838 2.67742,-3.51224 3.35507,-14.21497 1.17501,-18.55774 1.11508,-69.008667 -0.0834,-70.206723 -0.57183,-0.571639 -1.69683,-0.153709 -2.5,0.928734 -0.80316,1.082441 -4.54286,2.487807 -8.31043,3.123034 l -6.85013,1.154958 -1.04847,6.25 c -1.097917,6.544787 -0.392359,76.390337 0.97867,96.881917 0.43724,6.53505 0.26219,14.2532 -0.389,17.15143 -1.376595,6.12679 -1.066349,6.52603 7.9192,10.19084 10.2628,4.18575 10.03685,4.57798 9.6545,-16.75896 z m 54.08149,15.0223 c 36.32878,-5.3725 35.61449,-5.20115 35.6853,-8.56054 0.031,-1.47234 0.2759,-11.67699 0.54414,-22.67699 0.55909,-22.92746 0.77173,-76.929395 0.32475,-82.477893 -0.26535,-3.293924 -0.88237,-3.83122 -5.30031,-4.615462 -2.75,-0.488163 -7.53125,-0.928598 -10.625,-0.978745 -6.1632,-0.0999 -7.44128,-0.694693 -9.50984,-4.425678 -0.76165,-1.37378 -3.35407,-3.06128 -5.76094,-3.75 -2.40686,-0.68872 -5.27515,-2.004165 -6.37397,-2.92321 -1.67918,-1.404445 -2.44958,-1.354596 -4.82969,0.3125 -1.5575,1.09092 -3.97229,1.992105 -5.3662,2.002633 -1.3939,0.0105 -3.34877,0.53438 -4.34417,1.164116 -1.44942,0.916972 -1.13827,1.450951 1.5625,2.681502 1.85477,0.84509 3.37231,1.947198 3.37231,2.449127 0,1.367118 -8.42566,2.596101 -16.65374,2.429142 C 136.17512,84.862408 134.5,86.2271 134.5,93.884758 c 0,6.759372 0.33102,7.124482 7.7933,8.595662 l 5.3317,1.05114 -5.78445,0.13696 c -3.40088,0.0805 -6.40898,0.88947 -7.30006,1.96316 -1.02535,1.23548 -1.43655,6.39087 -1.2712,15.9375 0.13443,7.76122 -0.48735,17.88302 -1.38175,22.49291 -1.46359,7.54363 -1.41429,8.61572 0.49315,10.72342 1.84375,2.03731 2.11931,5.59319 2.11931,27.34755 0,13.75316 0.375,25.38075 0.83334,25.83908 1.4571,1.45711 6.92788,0.93565 37.28778,-3.55414 z m -30.15898,-28.42503 c 0.41455,-1.54687 0.76141,-3.79687 0.7708,-5 0.0125,-1.57367 1.02855,-2.1875 3.62172,-2.1875 3.26444,0 3.57585,0.36632 3.29936,3.88097 -0.32351,4.11253 -2.28345,6.06848 -6.11231,6.0999 -1.81251,0.0149 -2.16506,-0.60859 -1.57957,-2.79337 z m 16.34555,-14.79641 c -0.46193,-0.74741 -0.23772,-1.96106 0.49825,-2.69702 1.55987,-1.55988 5.61778,1.10907 4.48152,2.94757 -0.95141,1.53943 -3.96729,1.38769 -4.97977,-0.25055 z m -64.269149,29.66268 c 0.501818,-99.980329 0.769913,-113.140578 2.343483,-115.036613 1.388124,-1.672589 1.320566,-2.113809 -0.426299,-2.784144 -1.275635,-0.489507 -2.717701,0.08123 -3.740926,1.480575 -0.9158,1.25243 -4.10361,2.869858 -7.084021,3.594282 -4.67955,1.137418 -5.59541,1.914075 -6.712354,5.692133 -2.004664,6.780768 -0.98841,108.879277 1.105072,111.021637 2.14255,2.19258 10.815109,5.1159 12.854993,4.33313 1.078912,-0.41403 1.634407,-3.19175 1.660052,-8.301 z M 238.875,193.85555 c 25.64142,-4.53776 29.37501,-5.31598 29.3671,-6.12114 -0.004,-0.44216 -1.77995,-1.81271 -3.94577,-3.04566 -2.98075,-1.69685 -3.58648,-2.59313 -2.49211,-3.6875 0.79518,-0.79518 1.44578,-3.30203 1.44578,-5.57078 0,-3.8703 0.8658,-4.68668 4.5155,-4.2578 1.58351,0.18608 3.31098,-10.06195 2.18897,-12.98585 -0.40681,-1.06011 -0.0643,-4.58897 0.76113,-7.84191 1.68265,-6.63124 1.85958,-56.464264 0.20633,-58.117505 -0.54585,-0.54586 -5.64213,-1.732343 -11.32505,-2.636627 -5.68293,-0.904283 -10.76883,-2.349992 -11.302,-3.212686 -1.74485,-2.823239 -14.01984,-6.102777 -17.85738,-4.771002 -1.89062,0.656121 -3.4375,1.913061 -3.4375,2.7932 0,0.88014 -1.0849,2.371987 -2.4109,3.315218 -2.29676,1.633779 -2.43752,4.111549 -2.97345,52.339962 -0.51891,46.69808 -0.0867,56.2642 2.54091,56.24172 0.53264,-0.005 7.15594,-1.1033 14.71844,-2.44164 z m 14.23247,-9.64593 c -0.86045,-6.21321 -0.69938,-8.40226 0.83462,-11.34292 0.98588,-1.88993 1.79597,-4.17255 1.80021,-5.0725 0.004,-0.89995 0.44237,-1.36763 0.97365,-1.03928 0.53127,0.32835 0.92511,4.43737 0.87519,9.13115 -0.0744,6.99404 -0.47432,8.60803 -2.21597,8.94344 -1.16885,0.2251 -2.18931,-0.0539 -2.2677,-0.61989 z m -7.92908,-6.56777 c -0.39555,-0.64 -0.14749,-1.51695 0.55122,-1.94878 0.69871,-0.43182 1.27039,0.0917 1.27039,1.16363 0,2.19566 -0.75008,2.51895 -1.82161,0.78515 z m 0.14795,-17.26061 c -0.91055,-1.4733 0.56631,-7.82577 1.81938,-7.82577 1.47457,0 1.42194,7.15613 -0.0594,8.07162 -0.64,0.39555 -1.43201,0.28491 -1.76004,-0.24585 z m 9.74758,-82.743125 c 0.41435,-0.670432 5.43403,-0.862047 11.79197,-0.450134 18.55043,1.201831 22.95628,-1.845684 11.07161,-7.658199 -4.74895,-2.3226 -9.23044,-3.364074 -16.2167,-3.768675 -5.30981,-0.307512 -14.02856,-1.171796 -19.375,-1.920631 -12.64299,-1.770809 -17.08438,-0.617184 -17.60031,4.571577 -0.44744,4.499748 0.68615,4.986544 14.4555,6.207654 4.9918,0.442688 10.0543,1.547695 11.25,2.455573 2.61331,1.984241 3.6653,2.112318 4.62293,0.562835 z M 349.5,72.555473 c 0,-0.6875 -0.5625,-1.25 -1.25,-1.25 -0.6875,0 -1.25,0.5625 -1.25,1.25 0,0.6875 0.5625,1.25 1.25,1.25 0.6875,0 1.25,-0.5625 1.25,-1.25 z m -165,-1.875 c 0,-1.03125 -0.84375,-1.875 -1.875,-1.875 -1.03125,0 -1.875,0.84375 -1.875,1.875 0,1.03125 0.84375,1.875 1.875,1.875 1.03125,0 1.875,-0.84375 1.875,-1.875 z m 98.75,-6.979166 c 0,-3.046306 -2.92096,-2.615712 -3.52915,0.520249 -0.23923,1.233455 0.39845,2.083917 1.5625,2.083917 1.15954,0 1.96665,-1.068745 1.96665,-2.604166 z m -26.48361,-3.958334 c 0.30965,-1.624633 -0.41075,-2.1875 -2.79974,-2.1875 -2.41935,0 -3.21665,0.641214 -3.21665,2.586939 0,1.964814 0.6733,2.490879 2.79972,2.1875 1.53987,-0.219691 2.98736,-1.383814 3.21667,-2.586939 z M 99.5,225.0947 c 0,-0.66591 0.84375,-0.88699 1.875,-0.49126 1.03125,0.39573 1.875,0.94057 1.875,1.21077 0,0.27019 -0.84375,0.49126 -1.875,0.49126 -1.03125,0 -1.875,-0.54485 -1.875,-1.21077 z m 95,-8.78923 c 0,-0.6875 0.5957,-1.25 1.32377,-1.25 0.72808,0 0.97613,0.5625 0.55123,1.25 -0.4249,0.6875 -1.0206,1.25 -1.32378,1.25 -0.30317,0 -0.55122,-0.5625 -0.55122,-1.25 z m 143.75,-5.625 c -2.32964,-1.71875 -4.97016,-3.125 -5.86785,-3.125 -0.89769,0 -1.63215,-0.83303 -1.63215,-1.85118 0,-2.05585 -0.123,-2.08902 -19.07705,-5.14143 -20.55611,-3.31041 -19.0841,-1.39027 -18.6175,-24.28529 0.48954,-24.01995 0.78745,-24.65893 11.56759,-24.81068 4.25842,-0.06 8.81231,-0.4485 10.11976,-0.86348 1.30744,-0.41496 3.09709,-0.157 3.97699,0.57325 2.30592,1.91375 9.22029,-0.35652 13.46168,-4.42005 3.11052,-2.98006 3.58604,-3.10995 4.32602,-1.18162 0.56733,1.47846 1.692,1.95045 3.54148,1.48626 3.5757,-0.89745 6.3737,2.46507 7.25664,8.72074 0.38026,2.69417 1.29689,6.44536 2.03695,8.33598 1.31912,3.36994 1.5517,3.4375 11.83293,3.4375 8.65776,0 11.05204,-0.44416 13.72406,-2.54598 4.69356,-3.69197 3.07936,-5.75577 -5.15659,-6.59288 -3.91487,-0.39791 -9.25447,-1.35089 -11.86576,-2.11771 -4.09378,-1.20218 -4.62971,-1.77128 -3.89055,-4.13133 0.47149,-1.50541 1.92679,-4.10643 3.234,-5.78008 1.65106,-2.11388 2.14276,-4.10827 1.61042,-6.532 -0.42147,-1.91895 -0.30276,-4.20587 0.2638,-5.08202 0.56658,-0.87615 1.59263,-4.968 2.28013,-9.093 l 1.25,-7.5 4.88085,-0.39948 c 10.26786,-0.8404 10.43165,-0.62255 10.43165,13.87488 0,7.08465 0.39161,14.66422 0.87026,16.84347 1.03614,4.71751 7.2475,9.05613 12.96517,9.05613 2.11907,0 4.31045,0.8177 4.86975,1.8171 0.72448,1.29459 3.84889,1.92363 10.86542,2.1875 l 9.84851,0.3704 1.67773,5.625 c 0.92273,3.09375 1.71866,8.4375 1.76872,11.875 0.16724,11.48412 1.50694,16.0573 4.95947,16.92947 2.97276,0.75095 2.88802,0.88301 -1.88753,2.94183 -2.75,1.18557 -9.78125,3.25272 -15.625,4.59368 -5.84375,1.34095 -11.75,2.9938 -13.125,3.67301 -9.8563,4.86871 -17.52443,6.23701 -34.95284,6.23701 -16.90271,0 -17.87416,-0.13847 -21.92216,-3.125 z m 46.875,-38.85416 c 0,-1.53289 -1.01303,-2.53971 -2.8125,-2.79527 -3.09913,-0.44015 -3.80521,2.03172 -1.29688,4.54006 2.05274,2.05274 4.10938,1.17951 4.10938,-1.74479 z m 46.15975,25.31973 c -0.35023,-0.91269 -0.0514,-3.19932 0.66424,-5.08138 0.71555,-1.88206 1.35708,-7.46344 1.42561,-12.40306 0.14266,-10.28309 2.03887,-18.92724 2.24434,-10.23113 0.2292,9.70137 -1.5099,29.375 -2.5967,29.375 -0.60539,0 -1.38725,-0.74675 -1.73749,-1.65943 z M 2.3575177,185.68047 c 0.00938,-3.4375 0.2521409,-4.69538 0.5394588,-2.79531 0.287318,1.90008 0.2796399,4.71258 -0.017063,6.25 -0.2967024,1.53743 -0.5317807,-0.0172 -0.5223963,-3.45469 z M 412,82.004245 c 0,-3.934789 2.2129,-5.27158 4.66589,-2.818604 2.44187,2.441886 1.19992,5.869832 -2.12667,5.869832 -1.8588,0 -2.53922,-0.81762 -2.53922,-3.051228 z m 28.84869,-22.677938 c 0.06,-1.456179 0.35617,-1.752375 0.7552,-0.755209 0.36108,0.902344 0.31668,1.980469 -0.0986,2.395834 -0.41536,0.415364 -0.7108,-0.322917 -0.65652,-1.640625 z m -5.33307,-0.124725 c 0.90234,-0.361089 1.98048,-0.31668 2.39584,0.09869 0.41536,0.415365 -0.32292,0.710801 -1.64062,0.656525 -1.45619,-0.05998 -1.75238,-0.356177 -0.75522,-0.755209 z m -22.89062,-4.876285 -3.75,-1.77713 5,0.788938 c 2.75,0.433915 5.84375,1.262203 6.875,1.840642 3.32439,1.864681 -4.0167,1.094476 -8.125,-0.85245 z m -25,-5.736167 C 382.8125,47.355218 375.21875,45.742221 370.75,45.00469 366.28125,44.267158 357.84375,42.350407 352,40.745241 334.43946,35.921701 275.7438,22.773515 225.57141,12.424466 c -12.95136,-2.6714742 -13.51397,-2.6868937 -21.25,-0.582398 -4.37052,1.188951 -12.60403,3.222208 -18.29667,4.518348 -5.69265,1.29614 -20.5989,4.960854 -33.125,8.143809 -12.52611,3.182953 -25.5807,6.283902 -29.01022,6.890996 -3.42951,0.607094 -7.76031,1.73541 -9.62398,2.50737 -1.86368,0.771959 -4.1053,1.164629 -4.98139,0.8726 -0.87609,-0.29203 2.61096,-1.69967 7.74898,-3.128091 5.13803,-1.42842 20.02937,-5.680223 33.09187,-9.44845 32.28091,-9.312292 55.40734,-15.6971613 60.41332,-16.6792415 2.62117,-0.5142211 3.59479,-1.1681381 2.62849,-1.7653503 -0.87162,-0.5386893 0.43367,-0.9485849 3.02069,-0.9485849 2.50554,0 4.30651,0.4029264 4.00215,0.895392 -0.30436,0.4924656 4.90034,2.1883851 11.56599,3.76871 6.66565,1.580325 18.30686,4.4870287 25.86936,6.4593417 7.5625,1.972313 39.90625,10.068299 71.875,17.991079 31.96875,7.922781 60.61074,15.152424 63.64885,16.065872 8.67968,2.609654 4.20671,3.098148 -5.52385,0.603262 z m 12.89062,1.862451 c 0.90234,-0.361089 1.98048,-0.31668 2.39584,0.09869 0.41536,0.415365 -0.32292,0.710802 -1.64062,0.656525 -1.45619,-0.05997 -1.75238,-0.356176 -0.75522,-0.755208 z M 100.75,36.362586 c 1.03125,-0.697858 2.95313,-1.277444 4.27083,-1.287971 3.19806,-0.02555 2.20033,0.689895 -2.39583,1.717983 -2.738645,0.612593 -3.244322,0.49662 -1.875,-0.430012 z"
       id="path9899"
       inkscape:connector-curvature="0" />
    <path
       style="fill:#211f0c"
       d="m 166.42489,285.06404 c -4.88844,-2.74507 -7.9005,-5.10324 -6.875,-5.3825 1.00381,-0.27338 3.6508,-1.09504 5.88221,-1.82593 4.81052,-1.57569 6.73754,0.18046 3.25557,2.96693 -2.13677,1.70997 -2.00368,1.79872 1.74983,1.16683 10.70502,-1.80213 11.6369,-2.20192 13.49132,-5.78798 2.14944,-4.15657 6.35407,-4.82864 11.03217,-1.76343 2.25027,1.47443 3.69611,1.59555 6.67018,0.55878 4.81093,-1.67709 5.3551,-4.8835 6.03605,-35.56627 0.27465,-12.375 0.83447,-24.89481 1.24405,-27.8218 0.60187,-4.30102 0.33635,-5.4785 -1.38418,-6.13873 -2.15417,-0.82664 -25.67903,2.23711 -59.85019,7.79456 -22.52131,3.66276 -22.53463,3.66304 -30.19771,0.60516 -3.3573,-1.3397 -14.40018,-5.08857 -24.539733,-8.33084 l -18.435543,-5.89501 0.125337,-55.75036 C 74.714299,106.06411 74.301424,86.460161 73.34484,82.90768 L 71.93509,77.672271 64.620587,76.84473 C 55.889929,75.856967 52.924469,74.429457 55.75,72.574615 c 2.458505,-1.613905 15.879972,-1.629129 16.875,-0.01914 1.219811,1.973697 2.777533,1.46372 3.456201,-1.131511 0.511439,-1.955745 2.045963,-2.470159 8.583289,-2.877355 9.862486,-0.614312 12.366564,1.247781 8.005697,5.953234 -1.557525,1.680597 -4.206726,3.055632 -5.887113,3.055632 -4.087034,0 -6.786158,2.3286 -7.968942,6.875 -1.493615,5.74118 -1.928522,45.214575 -0.880427,79.910065 l 0.941295,31.16005 7.116619,2.55666 c 3.91414,1.40616 7.524645,2.14862 8.023345,1.64992 0.498699,-0.4987 1.014914,-27.83281 1.147145,-60.74246 0.13223,-32.90966 0.633046,-60.471026 1.112926,-61.247487 0.479879,-0.776461 1.261185,-1.410993 1.736236,-1.41007 0.475052,9.24e-4 0.976654,20.391549 1.114673,45.312497 0.138019,24.92095 0.521821,53.18582 0.852896,62.81082 l 0.60195,17.5 5.87067,2.91173 c 3.22886,1.60145 7.34506,3.0077 9.1471,3.125 l 3.27644,0.21327 0.34498,-19.04862 c 0.30919,-17.07235 0.0822,-19.56365 -2.1875,-24.0127 -3.17242,-6.21846 -3.16848,-7.71351 0.0275,-10.45003 1.89739,-1.6246 2.56806,-3.71861 2.59112,-8.0903 0.0171,-3.24408 0.31834,-21.50735 0.66939,-40.58502 0.57405,-31.196927 0.43444,-34.764885 -1.38769,-35.464098 -1.11427,-0.427587 -3.01695,0.119425 -4.22818,1.215568 -1.37296,1.242509 -5.00339,2.123329 -9.64094,2.339103 l -7.43871,0.346102 0.407339,-3.740671 c 0.224035,-2.05737 0.608116,-3.941451 0.853514,-4.186847 1.800817,-1.800815 22.188177,-2.787837 36.743397,-1.778872 17.43031,1.208267 22.62075,0.923965 22.62075,-1.239028 0,-0.703437 -0.98349,-1.998122 -2.18554,-2.877077 -1.20204,-0.878956 -1.87494,-1.908701 -1.49531,-2.288321 2.71154,-2.711541 46.51552,-10.115127 59.93085,-10.129287 11.07055,-0.01163 40.3996,3.715703 49.56739,6.299452 3.54331,0.998609 8.43311,1.815651 10.86623,1.815651 4.82853,0 77.69729,10.866118 100.81638,15.033639 29.67325,5.348995 31.51725,5.95541 29.24734,9.618278 -0.75772,1.222696 -2.72647,2.411338 -4.375,2.641428 -1.64854,0.23009 -3.53172,0.933215 -4.18484,1.5625 -1.49417,1.439635 -9.50037,1.46207 -11.75574,0.03294 -0.98022,-0.621129 -3.20762,-0.501316 -5.28956,0.284531 -4.60975,1.739985 -14.63061,-0.743581 -17.07366,-4.23153 -2.40046,-3.427132 -8.55533,-3.129957 -13.5144,0.652514 l -4.05684,3.094302 -2.01042,-3.06829 c -3.19084,-4.869837 -8.94,-7.236183 -15.27327,-6.286451 -6.03582,0.905131 -7.96361,3.17437 -7.96361,9.374113 0,4.65817 -3.10289,12.542028 -4.93621,12.542028 -0.72259,0 -1.31379,0.871684 -1.31379,1.937075 0,1.642558 -3.12319,8.874368 -4.50376,10.428548 -0.2397,0.26984 -1.35404,-0.27142 -2.4763,-1.20282 -1.73872,-1.443 -2.27192,-1.37692 -3.60552,0.44688 -2.90185,3.96853 -4.41442,2.41014 -4.41442,-4.54816 0,-6.957156 -1.80804,-14.080066 -4.2447,-16.7224 -2.21959,-2.406925 -10.56081,0.640774 -12.55126,4.585959 -1.84219,3.651308 -2.97956,23.699631 -3.94101,69.468381 -0.36086,17.17735 -1.04578,31.61892 -1.52205,32.0924 -0.47629,0.47347 -9.02223,1.74873 -18.99098,2.83391 -17.30675,1.88399 -20.60627,2.30019 -30.64276,3.8652 l -4.39276,0.68497 0.5493,33.37753 c 0.30212,18.35764 0.9328,34.3619 1.4015,35.56502 0.50617,1.29929 2.19365,2.20338 4.15596,2.22659 8.89655,0.10525 -24.07363,11.30553 -38.1252,12.95146 -1.47343,0.17259 -3.62299,1.25783 -4.77679,2.41163 -3.32414,3.32415 -9.32002,2.39855 -18.74436,-2.89361 z m 6.19623,-80.64604 c 16.31742,-2.4131 30.95235,-4.70981 32.52209,-5.10379 2.24949,-0.56459 2.99053,-1.81969 3.49831,-5.92504 0.75692,-6.1195 1.49314,-47.48545 1.46047,-82.05859 l -0.023,-24.349892 -5.60199,-0.85887 c -3.08109,-0.472378 -8.86833,-1.231271 -12.86053,-1.686428 -5.90387,-0.67311 -6.99693,-1.142782 -5.8568,-2.516564 1.67429,-2.017395 -0.39102,-3.370279 -8.44716,-5.533325 -2.92187,-0.784514 -5.3125,-1.967206 -5.3125,-2.628208 0,-1.791337 -3.67876,-1.451623 -5.65235,0.521964 -0.94809,0.94808 -4.39762,2.12475 -7.66566,2.614821 l -5.94186,0.891039 2.92252,2.204473 2.92254,2.204472 -4.10413,1.430706 c -2.25727,0.786888 -7.04507,1.430705 -10.63955,1.430705 -8.32791,0 -9.66737,1.575608 -9.26185,10.894637 0.17305,3.9767 -0.04,8.07411 -0.47336,9.10536 -0.43339,1.03125 -1.05489,8.90625 -1.38111,17.5 -0.32623,8.59375 -0.95603,19.17958 -1.39955,23.52408 -0.64451,6.313 -0.40289,8.34497 1.20335,10.11985 1.10539,1.22144 1.91194,3.29185 1.79234,4.60094 -0.11963,1.30907 -0.12833,12.64576 -0.0194,25.19263 l 0.19804,22.8125 4.22655,0 c 2.3246,0 17.57715,-1.97436 33.89457,-4.38747 z m -30.12986,-27.58976 c 0.41731,-1.08748 0.75874,-3.33748 0.75874,-5 0,-2.40214 0.65065,-3.02277 3.16897,-3.02277 2.61335,0 2.97172,0.38355 2.04392,2.1875 -0.61879,1.20313 -0.85127,2.95568 -0.51663,3.89457 0.64928,1.82161 -1.72097,3.86723 -4.5175,3.8988 -1.03595,0.0113 -1.40089,-0.75053 -0.9375,-1.9581 z m 17.1281,-15.44899 c -1.24317,-0.76833 -1.27775,-1.23285 -0.1439,-1.93361 0.8208,-0.50728 2.05486,-0.35984 2.74236,0.32766 1.62903,1.62902 -0.46603,2.92385 -2.59846,1.60595 z m 79.25564,32.4763 c 25.64142,-4.53776 29.37501,-5.31598 29.3671,-6.12114 -0.004,-0.44216 -1.77995,-1.81271 -3.94577,-3.04566 -2.98075,-1.69685 -3.58648,-2.59313 -2.49211,-3.6875 0.79518,-0.79518 1.44578,-3.30203 1.44578,-5.57078 0,-3.87852 0.86824,-4.6912 4.54235,-4.25163 1.67585,0.20048 3.45437,-10.08912 2.34696,-13.57827 -0.42282,-1.3322 -0.11075,-4.84046 0.69341,-7.79613 1.76403,-6.48327 1.63857,-55.79994 -0.14742,-57.951918 -0.65678,-0.79138 -5.08246,-1.800252 -9.83483,-2.241939 -9.62473,-0.894525 -12.89811,-1.812248 -11.9479,-3.349717 0.88922,-1.438776 -1.10282,-2.470704 -8.574,-4.441561 -5.07637,-1.339123 -7.31436,-1.388385 -10.51386,-0.231432 -2.23559,0.808402 -4.06471,2.015655 -4.06471,2.682785 0,0.66713 -0.88651,2.19255 -1.97003,3.389824 -1.69988,1.87835 -2.06907,9.213175 -2.69223,53.488728 -0.57175,40.62306 -0.38989,51.71228 0.87308,53.23406 1.94637,2.34523 0.4091,2.39319 16.91418,-0.52772 z m 14.23247,-9.73758 c -0.87637,-5.7646 -0.68555,-8.33713 0.83462,-11.25127 0.98588,-1.88993 1.79597,-4.25185 1.80021,-5.24873 0.005,-1.29795 0.39099,-1.42921 1.35784,-0.46236 0.92031,0.92031 0.96943,2.7289 0.1543,5.6811 -0.76263,2.76198 -0.761,5.10798 0.005,6.47579 1.51605,2.70902 0.40946,5.74297 -2.09468,5.74297 -1.05282,0 -1.97836,-0.42187 -2.05675,-0.9375 z m -7.92908,-6.47612 c -0.39555,-0.64 -0.14749,-1.51695 0.55122,-1.94878 0.69871,-0.43182 1.27039,0.0917 1.27039,1.16363 0,2.19566 -0.75008,2.51895 -1.82161,0.78515 z m 0.14795,-17.26061 c -0.91055,-1.4733 0.56631,-7.82577 1.81938,-7.82577 1.47457,0 1.42194,7.15613 -0.0594,8.07162 -0.64,0.39555 -1.43201,0.28491 -1.76004,-0.24585 z m 9.74758,-82.743125 c 0.41435,-0.670432 5.43403,-0.862047 11.79197,-0.450134 18.55043,1.201831 22.95628,-1.845684 11.07161,-7.658199 -4.77414,-2.334919 -9.22773,-3.36392 -16.34267,-3.775984 -5.3791,-0.311531 -13.81661,-1.228201 -18.75,-2.037043 -12.16704,-1.994817 -17.57579,-0.59479 -18.09934,4.684917 -0.44739,4.51154 0.67968,4.996351 14.4555,6.218035 4.9918,0.442688 10.0543,1.547695 11.25,2.455573 2.61331,1.984241 3.6653,2.112318 4.62294,0.562835 z M 349.5,72.555473 c 0,-0.6875 -0.5625,-1.25 -1.25,-1.25 -0.6875,0 -1.25,0.5625 -1.25,1.25 0,0.6875 0.5625,1.25 1.25,1.25 0.6875,0 1.25,-0.5625 1.25,-1.25 z m -165,-1.875 c 0,-1.03125 -0.84375,-1.875 -1.875,-1.875 -1.03125,0 -1.875,0.84375 -1.875,1.875 0,1.03125 0.84375,1.875 1.875,1.875 1.03125,0 1.875,-0.84375 1.875,-1.875 z m 99.375,-6.892118 c 0,-2.679383 -3.63209,-2.29238 -4.1589,0.443135 -0.3217,1.670495 0.18739,2.179588 1.85789,1.857881 1.26555,-0.243724 2.30101,-1.279181 2.30101,-2.301016 z m -27.10861,-4.045382 c 0.30965,-1.624633 -0.41075,-2.1875 -2.79974,-2.1875 -2.41935,0 -3.21665,0.641214 -3.21665,2.586939 0,1.964814 0.6733,2.490879 2.79972,2.1875 1.53987,-0.219691 2.98736,-1.383814 3.21667,-2.586939 z M 156.44219,273.13604 c -3.52543,-2.66627 -1.06273,-3.87919 6.18281,-3.04515 4.71577,0.54283 5.63631,0.95603 3.75,1.68326 -1.375,0.5301 -3.47674,1.48526 -4.67054,2.12257 -2.65416,1.41694 -2.31886,1.4654 -5.26227,-0.76068 z M 142,271.32579 c -9.60274,-3.43554 -17.5,-7.37329 -17.5,-8.72589 0,-1.87983 3.63685,-1.58614 5.68181,0.45881 0.96428,0.96428 4.43973,2.12891 7.72321,2.58808 6.16735,0.86245 12.87092,5.01448 10.85758,6.72496 -0.62568,0.53156 -3.66885,0.0609 -6.7626,-1.04596 z m 31.875,1.22968 c -0.4249,-0.6875 -0.17685,-1.25 0.55122,-1.25 0.72808,0 1.32378,0.5625 1.32378,1.25 0,0.6875 -0.24805,1.25 -0.55123,1.25 -0.30317,0 -0.89887,-0.5625 -1.32377,-1.25 z M 96.351881,249.37702 88.875,245.0474 l 5.895856,0.23545 c 4.14101,0.16539 6.624154,-0.42363 8.342744,-1.97894 2.06364,-1.86756 2.40213,-1.90947 2.16116,-0.2676 -0.15715,1.07074 -0.67701,2.33809 -1.15525,2.81631 -0.47823,0.47824 -0.85162,1.76014 -0.82976,2.84869 0.0343,1.70574 0.26916,1.67696 1.70031,-0.20834 1.04644,-1.37851 3.34312,-2.1875 6.21024,-2.1875 2.50234,0 4.5497,-0.5625 4.5497,-1.25 0,-0.6875 -0.74244,-1.25 -1.64986,-1.25 -0.90743,0 -3.53,-1.67857 -5.82793,-3.73017 -2.29793,-2.05159 -5.35237,-4.08661 -6.78764,-4.52226 -1.43526,-0.43567 -11.89082,-5.28192 -23.23457,-10.76947 -11.34375,-5.48755 -23.339078,-10.79935 -26.656284,-11.80401 -5.983521,-1.81217 -6.015693,-1.85044 -4.0625,-4.83139 C 48.614047,206.49556 49.5,204.2467 49.5,203.15069 c 0,-1.09602 0.5625,-1.64512 1.25,-1.22022 0.6875,0.4249 1.25,1.87507 1.25,3.22259 0,1.974 0.593382,2.30111 3.053956,1.68355 1.679675,-0.42157 3.783379,-0.31569 4.674898,0.2353 1.151224,0.7115 0.719027,1.22294 -1.491455,1.76491 l -3.112399,0.76312 4.024755,2.11535 c 4.12931,2.1703 6.625206,2.28918 8.014222,0.38172 0.433938,-0.5959 2.789977,-0.42306 5.235642,0.38408 3.369865,1.11216 5.079167,2.77411 7.058611,6.8631 2.209442,4.5641 3.31878,5.51027 7.198721,6.1399 5.479113,0.88913 6.380718,0.27001 4.347638,-2.98547 -1.016529,-1.62772 -1.077609,-2.44315 -0.183004,-2.44315 2.526115,0 6.178415,2.58624 6.178415,4.375 0,0.98288 1.086905,2.36874 2.415344,3.07969 1.328436,0.71096 2.733286,2.2944 3.121886,3.51876 0.84035,2.64774 7.83328,5.65185 8.95005,3.84489 0.41144,-0.66574 0.40893,-2.5617 -0.006,-4.21325 -0.66357,-2.64389 -0.19204,-3.14849 3.94482,-4.22149 2.58417,-0.67027 11.44848,-2.1057 19.69848,-3.18983 8.25,-1.08414 20.34375,-2.80477 26.875,-3.82362 6.53125,-1.01886 13.84375,-1.85576 16.25,-1.85978 4.27053,-0.008 4.375,0.11187 4.375,4.98221 0,6.06839 -2.34217,7.27615 -2.89736,1.49405 -0.45553,-4.7442 -3.2457,-4.84369 -3.54196,-0.12631 -0.10413,1.65807 -0.24475,3.63093 -0.3125,4.38412 -0.0677,0.75319 -5.60755,2.64898 -12.31068,4.21285 -19.7458,4.60681 -24.9798,6.0267 -27.82126,7.5474 -1.47763,0.7908 -3.46363,1.13965 -4.41334,0.7752 -0.94971,-0.36444 -4.28075,0.20763 -7.40232,1.27125 -6.28873,2.14279 -7.73329,5.79665 -2.86308,7.2419 2.72294,0.80804 2.73289,0.8665 0.3125,1.83588 -1.375,0.55068 -5.8854,1.34348 -10.02312,1.76176 -6.98798,0.7064 -8.05497,0.45252 -14.999998,-3.56913 z M 99.5,225.0947 c 0,-0.66591 0.84375,-0.88699 1.875,-0.49126 1.03125,0.39573 1.875,0.94057 1.875,1.21077 0,0.27019 -0.84375,0.49126 -1.875,0.49126 -1.03125,0 -1.875,-0.54485 -1.875,-1.21077 z m 88.12239,-4.10173 c 0.0733,-2.92187 0.66638,-5.14593 1.31795,-4.94235 0.65156,0.20359 1.01082,1.69674 0.79835,3.31812 -0.21248,1.62137 0.21857,3.3218 0.95788,3.77872 1.63165,1.00841 0.50798,3.15801 -1.6508,3.15801 -1.01895,0 -1.51063,-1.83507 -1.42338,-5.3125 z m 6.27225,4.09428 c -1.01014,-1.63444 1.86682,-3.02031 3.2983,-1.58884 0.80013,0.80014 0.55945,1.48054 -0.69389,1.96149 -1.05544,0.40501 -2.22743,0.23732 -2.60441,-0.37265 z M 194.5,216.30547 c 0,-0.6875 0.5957,-1.25 1.32377,-1.25 0.72808,0 0.97613,0.5625 0.55123,1.25 -0.4249,0.6875 -1.0206,1.25 -1.32378,1.25 -0.30317,0 -0.55122,-0.5625 -0.55122,-1.25 z m 151.25,-3.66393 c -5.77811,-1.15754 -9.94262,-3.8702 -10.73666,-6.99362 -0.57214,-2.25053 -2.81784,-2.83796 -20.16617,-5.27507 -10.73727,-1.50839 -20.1185,-3.3387 -20.84716,-4.06736 -2.02912,-2.02913 -1.0145,-38.65043 1.16509,-42.05232 1.43511,-2.23988 2.9803,-2.6951 9.45794,-2.78628 4.25842,-0.06 8.81231,-0.4485 10.11976,-0.86348 1.30744,-0.41496 3.09709,-0.157 3.97699,0.57325 2.30592,1.91375 9.22029,-0.35652 13.46168,-4.42005 3.11052,-2.98006 3.58604,-3.10995 4.32602,-1.18162 0.56733,1.47846 1.692,1.95045 3.54148,1.48626 3.5757,-0.89745 6.3737,2.46507 7.25664,8.72074 0.38026,2.69417 1.29689,6.44536 2.03695,8.33598 1.31912,3.36994 1.5517,3.4375 11.83293,3.4375 8.65776,0 11.05204,-0.44416 13.72406,-2.54598 4.69356,-3.69197 3.07936,-5.75577 -5.15659,-6.59288 -3.91487,-0.39791 -9.25447,-1.35089 -11.86576,-2.11771 -4.09378,-1.20218 -4.62971,-1.77128 -3.89055,-4.13133 0.47149,-1.50541 1.92679,-4.10643 3.234,-5.78008 1.65106,-2.11388 2.14276,-4.10827 1.61042,-6.532 -0.42147,-1.91895 -0.30276,-4.20587 0.2638,-5.08202 0.56658,-0.87615 1.59263,-4.968 2.28013,-9.093 l 1.25,-7.5 4.88085,-0.39948 c 10.26786,-0.8404 10.43165,-0.62255 10.43165,13.87488 0,7.08465 0.39161,14.66422 0.87026,16.84347 1.03614,4.71751 7.2475,9.05613 12.96517,9.05613 2.11907,0 4.31045,0.8177 4.86975,1.8171 0.72448,1.29459 3.84889,1.92363 10.86542,2.1875 l 9.84851,0.3704 1.67773,5.625 c 0.92273,3.09375 1.71866,8.4375 1.76872,11.875 0.16697,11.46563 1.50859,16.05418 4.95947,16.96204 2.20515,0.58014 2.56588,1.01666 1.23747,1.49744 -6.7902,2.45751 -15.61195,4.71531 -23.09409,5.91059 -4.77633,0.76302 -9.26851,1.83172 -9.98258,2.37488 -0.71408,0.54318 -5.10112,2.48214 -9.74898,4.30882 -7.33327,2.88208 -10.14304,3.30222 -21.25,3.17748 -7.03964,-0.0791 -14.7681,-0.53815 -17.17435,-1.02018 z m 39.375,-40.81523 c 0,-1.53289 -1.01303,-2.53971 -2.8125,-2.79527 -3.09913,-0.44015 -3.80521,2.03172 -1.29688,4.54006 2.05274,2.05274 4.10938,1.17951 4.10938,-1.74479 z M 36.347491,210.2363 c -0.292601,-0.2926 -4.624863,-0.67954 -9.627247,-0.85985 -5.002384,-0.18033 -10.843484,-0.71593 -12.980221,-1.19024 L 9.8550451,207.32384 8.9491733,195.87715 C 7.4488402,176.91881 6.9377381,168.05701 7.045376,162.86797 c 0.024956,-1.20312 -0.1156687,-3.59375 -0.3125,-5.3125 -0.2708341,-2.36493 0.2802848,-3.21613 2.265945,-3.49971 2.413044,-0.34461 2.689186,0.39855 3.4375,9.2511 0.447523,5.29419 0.81987,15.02531 0.827436,21.62471 0.02003,17.46804 0.807685,20.97994 5.03603,22.45395 2.863114,0.99809 3.894978,0.77659 5.706304,-1.2249 1.216143,-1.34382 2.894359,-2.18115 3.729369,-1.86072 0.83501,0.32042 1.893643,-0.64411 2.352516,-2.14343 1.320677,-4.3151 2.191061,-73.78777 0.946953,-75.58402 -0.680425,-0.9824 -4.619478,-1.77193 -10.124484,-2.02932 -4.955911,-0.23171 -9.298142,-0.70869 -9.649404,-1.05995 -1.074424,-1.07442 7.220818,-3.48463 14.488959,-4.20981 11.03456,-1.10098 10.896689,-1.42368 11.816203,27.6571 0.914201,28.91275 2.811224,48.71399 5.921236,61.80614 0.359981,1.51541 -5.8251,2.81454 -7.139948,1.49969 z M 431.28475,197.14604 c -0.35023,-0.91269 -0.0514,-3.19932 0.66424,-5.08138 0.71555,-1.88206 1.35708,-7.46344 1.42561,-12.40306 0.14266,-10.28309 2.03887,-18.92724 2.24434,-10.23113 0.2292,9.70137 -1.5099,29.375 -2.5967,29.375 -0.60539,0 -1.38725,-0.74675 -1.73749,-1.65943 z M 2.2436859,186.93047 c 0.025475,-2.0625 0.3056232,-2.75492 0.6225525,-1.53871 0.3169293,1.21621 0.2960864,2.90371 -0.046317,3.75 -0.3424038,0.84629 -0.6017096,-0.14879 -0.576235,-2.21129 z M 412,82.004245 c 0,-3.934789 2.2129,-5.27158 4.66589,-2.818604 2.44187,2.441886 1.19992,5.869832 -2.12667,5.869832 -1.8588,0 -2.53922,-0.81762 -2.53922,-3.051228 z M 384.26562,46.701581 c 0.90234,-0.361089 1.98048,-0.31668 2.39584,0.09869 0.41536,0.415365 -0.32292,0.710802 -1.64062,0.656525 -1.45619,-0.05997 -1.75238,-0.356176 -0.75522,-0.755208 z m -5,-1.25 c 0.90234,-0.361089 1.98048,-0.31668 2.39584,0.09869 0.41536,0.415365 -0.32292,0.710802 -1.64062,0.656525 -1.45619,-0.05997 -1.75238,-0.356176 -0.75522,-0.755208 z M 365.125,43.737383 c -8.13623,-2.304582 -80.48671,-18.96886 -102.5,-23.608528 -6.875,-1.44902 -18.6875,-4.038922 -26.25,-5.755334 -23.03039,-5.2270619 -21.94183,-5.2759323 -53.125,2.385026 -40.96109,10.06316 -55.32585,13.387739 -55.79939,12.914204 -0.76003,-0.760034 74.18015,-22.2999853 83.6257,-24.0364161 2.58571,-0.475348 5.00954,-1.3630024 5.38627,-1.9725653 0.37673,-0.6095629 1.63614,-1.0638884 2.79869,-1.009612 1.60879,0.07511 1.6896,0.2662523 0.33828,0.8001512 -1.69369,0.6691584 24.85553,7.9086072 54.27545,14.7998532 21.21026,4.968236 91.81528,22.848889 98.125,24.850063 l 5.625,1.78401 -4.375,-0.04434 c -2.40625,-0.02439 -6.0625,-0.522316 -8.125,-1.106519 z M 110.75,34.56421 c 0,-0.270195 0.87297,-0.826253 1.93992,-1.235683 1.11241,-0.42687 1.61415,-0.217311 1.17623,0.491264 -0.73407,1.187755 -3.11615,1.75681 -3.11615,0.744419 z M 213.01562,2.9515808 c 0.90234,-0.3610882 1.98047,-0.3166804 2.39584,0.098684 0.41537,0.4153646 -0.32292,0.7108005 -1.64062,0.6565241 -1.45619,-0.05998 -1.75238,-0.3561754 -0.75522,-0.7552083 z"
       id="path9897"
       inkscape:connector-curvature="0" />
  </g>
</svg>
